<?xml version="1.0" standalone="no"?>
<!DOCTYPE svg PUBLIC "-//W3C//DTD SVG 20010904//EN"
 "http://www.w3.org/TR/2001/REC-SVG-20010904/DTD/svg10.dtd">
<svg version="1.0" xmlns="http://www.w3.org/2000/svg"
 width="3000.000000pt" height="2000.000000pt" viewBox="0 0 3000.000000 2000.000000"
 preserveAspectRatio="xMidYMid meet">

<g transform="translate(0.000000,2000.000000) scale(0.100000,-0.100000)"
fill="#D97706" stroke="none">
<path d="M13390 17661 c0 -54 26 -65 43 -18 3 9 16 17 27 17 13 0 20 7 20 20
0 17 -7 20 -45 20 l-45 0 0 -39z"/>
<path d="M13604 17680 c0 -18 7 -20 68 -20 61 0 68 2 68 20 0 18 -7 20 -68 20
-61 0 -68 -2 -68 -20z"/>
<path d="M13860 17680 c0 -18 7 -20 65 -20 58 0 65 2 65 20 0 18 -7 20 -65 20
-58 0 -65 -2 -65 -20z"/>
<path d="M14120 17680 c0 -18 7 -20 65 -20 58 0 65 2 65 20 0 18 -7 20 -65 20
-58 0 -65 -2 -65 -20z"/>
<path d="M14380 17680 c0 -18 7 -20 60 -20 53 0 60 2 60 20 0 18 -7 20 -60 20
-53 0 -60 -2 -60 -20z"/>
<path d="M14630 17680 c0 -18 7 -20 65 -20 58 0 65 2 65 20 0 18 -7 20 -65 20
-58 0 -65 -2 -65 -20z"/>
<path d="M14890 17680 c0 -18 7 -20 65 -20 58 0 65 2 65 20 0 18 -7 20 -65 20
-58 0 -65 -2 -65 -20z"/>
<path d="M15150 17680 c0 -18 7 -20 63 -20 56 0 63 2 63 20 0 18 -7 20 -63 20
-56 0 -63 -2 -63 -20z"/>
<path d="M15400 17680 c0 -18 7 -20 65 -20 58 0 65 2 65 20 0 18 -7 20 -65 20
-58 0 -65 -2 -65 -20z"/>
<path d="M15660 17680 c0 -13 7 -20 20 -20 13 0 20 -7 20 -20 0 -13 7 -20 20
-20 17 0 20 7 20 40 l0 40 -40 0 c-33 0 -40 -3 -40 -20z"/>
<path d="M13390 17424 c0 -61 1 -65 22 -62 22 3 23 9 19 108 -1 13 -8 20 -21
20 -18 0 -20 -7 -20 -66z"/>
<path d="M15700 17415 c0 -58 2 -65 20 -65 18 0 20 7 20 65 0 58 -2 65 -20 65
-18 0 -20 -7 -20 -65z"/>
<path d="M13390 17175 c0 -58 2 -65 20 -65 18 0 20 7 20 65 0 58 -2 65 -20 65
-18 0 -20 -7 -20 -65z"/>
<path d="M15700 17161 l0 -60 -387 -3 c-420 -3 -417 -3 -470 -60 -55 -58 -53
-28 -53 -940 0 -539 4 -856 10 -880 13 -45 75 -103 127 -118 26 -8 178 -10
488 -8 508 3 501 2 553 81 23 35 27 53 30 134 l4 93 -44 1 c-68 2 -81 -1 -108
-26 -14 -13 -38 -29 -53 -34 -18 -7 -164 -11 -409 -11 -367 0 -382 1 -418 21
-20 11 -45 35 -56 52 -18 31 -19 61 -19 764 0 723 0 732 21 759 11 15 33 37
48 48 27 20 39 21 434 21 l407 0 32 -24 c39 -29 63 -86 63 -146 l0 -45 -80 0
-80 0 0 -70 0 -70 810 0 810 0 0 70 0 70 -680 0 -680 0 0 84 c0 95 -9 128 -48
169 -39 42 -75 57 -131 57 -77 0 -81 4 -81 71 0 52 -2 59 -20 59 -18 0 -20 -7
-20 -59z m-252 -1914 c15 -31 4 -60 -29 -77 -45 -24 -98 25 -79 74 19 51 83
53 108 3z"/>
<path d="M13397 16983 c-4 -3 -7 -33 -7 -65 0 -53 2 -58 23 -58 21 0 22 3 19
65 -4 61 -14 79 -35 58z"/>
<path d="M10300 16735 c0 -26 28 -28 56 -6 l27 21 -42 0 c-30 0 -41 -4 -41
-15z"/>
<path d="M11580 16730 c0 -18 7 -20 60 -20 53 0 60 2 60 20 0 18 -7 20 -60 20
-53 0 -60 -2 -60 -20z"/>
<path d="M11830 16730 c0 -18 7 -20 65 -20 58 0 65 2 65 20 0 18 -7 20 -65 20
-58 0 -65 -2 -65 -20z"/>
<path d="M12090 16730 c0 -18 7 -20 65 -20 58 0 65 2 65 20 0 18 -7 20 -65 20
-58 0 -65 -2 -65 -20z"/>
<path d="M12340 16730 c0 -18 7 -20 65 -20 58 0 65 2 65 20 0 18 -7 20 -65 20
-58 0 -65 -2 -65 -20z"/>
<path d="M12600 16730 c0 -18 7 -20 65 -20 58 0 65 2 65 20 0 18 -7 20 -65 20
-58 0 -65 -2 -65 -20z"/>
<path d="M12860 16730 c0 -18 7 -20 60 -20 53 0 60 2 60 20 0 18 -7 20 -60 20
-53 0 -60 -2 -60 -20z"/>
<path d="M13110 16730 c0 -18 7 -20 65 -20 58 0 65 2 65 20 0 18 -7 20 -65 20
-58 0 -65 -2 -65 -20z"/>
<path d="M13367 16730 c3 -11 9 -20 14 -20 5 0 9 -22 9 -50 0 -45 2 -50 23
-50 21 0 23 5 22 48 0 44 2 47 28 50 19 2 27 9 27 23 0 17 -7 19 -64 19 -59 0
-64 -2 -59 -20z"/>
<path d="M13620 16730 c0 -18 7 -20 65 -20 58 0 65 2 65 20 0 18 -7 20 -65 20
-58 0 -65 -2 -65 -20z"/>
<path d="M13880 16730 c0 -18 7 -20 65 -20 58 0 65 2 65 20 0 18 -7 20 -65 20
-58 0 -65 -2 -65 -20z"/>
<path d="M14130 16730 c0 -18 7 -20 65 -20 58 0 65 2 65 20 0 18 -7 20 -65 20
-58 0 -65 -2 -65 -20z"/>
<path d="M14390 16730 c0 -18 7 -20 65 -20 58 0 65 2 65 20 0 18 -7 20 -65 20
-58 0 -65 -2 -65 -20z"/>
<path d="M14644 16733 c2 -15 15 -19 64 -21 57 -3 62 -1 62 18 0 18 -6 20 -64
20 -55 0 -64 -2 -62 -17z"/>
<path d="M17460 16730 c0 -18 7 -20 65 -20 58 0 65 2 65 20 0 18 -7 20 -65 20
-58 0 -65 -2 -65 -20z"/>
<path d="M17720 16730 c0 -18 7 -20 60 -20 53 0 60 2 60 20 0 18 -7 20 -60 20
-53 0 -60 -2 -60 -20z"/>
<path d="M17970 16730 c0 -18 7 -20 65 -20 58 0 65 2 65 20 0 18 -7 20 -65 20
-58 0 -65 -2 -65 -20z"/>
<path d="M18227 16730 c5 -17 14 -20 64 -20 52 0 59 2 59 20 0 18 -7 20 -64
20 -59 0 -64 -2 -59 -20z"/>
<path d="M18480 16730 c0 -18 7 -20 65 -20 58 0 65 2 65 20 0 18 -7 20 -65 20
-58 0 -65 -2 -65 -20z"/>
<path d="M18740 16730 c0 -18 7 -20 65 -20 58 0 65 2 65 20 0 18 -7 20 -65 20
-58 0 -65 -2 -65 -20z"/>
<path d="M18990 16730 c0 -18 7 -20 65 -20 58 0 65 2 65 20 0 18 -7 20 -65 20
-58 0 -65 -2 -65 -20z"/>
<path d="M19250 16730 c0 -18 7 -20 65 -20 58 0 65 2 65 20 0 18 -7 20 -65 20
-58 0 -65 -2 -65 -20z"/>
<path d="M19507 16730 c5 -17 14 -20 64 -20 52 0 59 2 59 20 0 18 -7 20 -64
20 -59 0 -64 -2 -59 -20z"/>
<path d="M19760 16730 c0 -18 7 -20 65 -20 58 0 65 2 65 20 0 18 -7 20 -65 20
-58 0 -65 -2 -65 -20z"/>
<path d="M20020 16730 c0 -18 7 -20 65 -20 58 0 65 2 65 20 0 18 -7 20 -65 20
-58 0 -65 -2 -65 -20z"/>
<path d="M20270 16730 c0 -18 7 -20 65 -20 58 0 65 2 65 20 0 18 -7 20 -65 20
-58 0 -65 -2 -65 -20z"/>
<path d="M20530 16730 c0 -18 7 -20 65 -20 58 0 65 2 65 20 0 18 -7 20 -65 20
-58 0 -65 -2 -65 -20z"/>
<path d="M20787 16730 c5 -17 14 -20 64 -20 52 0 59 2 59 20 0 18 -7 20 -64
20 -59 0 -64 -2 -59 -20z"/>
<path d="M21040 16730 c0 -18 7 -20 65 -20 58 0 65 2 65 20 0 18 -7 20 -65 20
-58 0 -65 -2 -65 -20z"/>
<path d="M21297 16744 c-3 -3 -3 -12 0 -20 4 -10 23 -14 63 -14 40 0 59 4 63
14 9 22 -2 26 -63 26 -31 0 -59 -3 -63 -6z"/>
<path d="M21550 16730 c0 -18 7 -20 65 -20 58 0 65 2 65 20 0 18 -7 20 -65 20
-58 0 -65 -2 -65 -20z"/>
<path d="M21810 16730 c0 -18 7 -20 65 -20 58 0 65 2 65 20 0 18 -7 20 -65 20
-58 0 -65 -2 -65 -20z"/>
<path d="M21990 16615 c0 -58 2 -65 20 -65 18 0 20 7 20 65 0 58 -2 65 -20 65
-18 0 -20 -7 -20 -65z"/>
<path d="M13392 16418 c2 -49 7 -63 20 -66 20 -4 24 14 20 79 -3 41 -7 49 -23
49 -18 0 -20 -6 -17 -62z"/>
<path d="M21992 16358 c2 -50 6 -63 21 -66 15 -3 17 5 17 62 0 60 -2 66 -20
66 -19 0 -21 -5 -18 -62z"/>
<path d="M16062 16187 l-172 -172 175 -175 174 -174 26 24 c14 13 25 27 25 32
0 5 -63 73 -141 150 l-140 142 146 146 146 146 -29 27 c-15 15 -30 27 -33 27
-2 0 -82 -78 -177 -173z"/>
<path d="M16811 16336 c-18 -19 -20 -28 -12 -43 5 -10 69 -76 141 -148 l130
-129 -145 -146 -146 -146 31 -29 30 -29 175 174 175 175 -172 172 c-95 95
-175 173 -179 173 -3 0 -16 -11 -28 -24z"/>
<path d="M16502 16022 c-67 -163 -122 -300 -122 -304 0 -13 62 -40 70 -31 9 9
250 590 250 602 0 9 -45 31 -63 31 -7 0 -67 -134 -135 -298z"/>
<path d="M19245 16259 c-136 -20 -291 -82 -416 -166 -98 -67 -114 -85 -114
-135 0 -69 74 -110 138 -77 12 7 24 15 27 19 3 4 37 28 76 53 132 85 270 127
422 127 166 0 312 -49 475 -159 89 -59 128 -66 171 -26 19 17 26 34 26 60 0
52 -10 66 -92 122 -227 156 -466 218 -713 182z"/>
<path d="M13390 16205 c0 -19 -5 -25 -17 -23 -12 2 -19 -4 -21 -19 -3 -21 1
-23 36 -23 l40 0 4 45 c3 41 1 45 -19 45 -18 0 -23 -6 -23 -25z"/>
<path d="M12060 16160 c0 -18 7 -20 65 -20 58 0 65 2 65 20 0 18 -7 20 -65 20
-58 0 -65 -2 -65 -20z"/>
<path d="M12320 16160 c0 -18 7 -20 65 -20 58 0 65 2 65 20 0 18 -7 20 -65 20
-58 0 -65 -2 -65 -20z"/>
<path d="M12580 16160 c0 -19 5 -21 62 -18 50 2 63 6 66 21 3 15 -5 17 -62 17
-60 0 -66 -2 -66 -20z"/>
<path d="M12832 16163 c3 -15 16 -19 66 -21 57 -3 62 -1 62 18 0 18 -6 20 -66
20 -57 0 -65 -2 -62 -17z"/>
<path d="M13090 16160 c0 -18 7 -20 65 -20 58 0 65 2 65 20 0 18 -7 20 -65 20
-58 0 -65 -2 -65 -20z"/>
<path d="M21997 16163 c-4 -3 -7 -33 -7 -65 0 -51 2 -58 20 -58 18 0 20 7 20
65 0 47 -4 65 -13 65 -8 0 -17 -3 -20 -7z"/>
<path d="M17470 16090 c0 -18 7 -20 65 -20 58 0 65 2 65 20 0 18 -7 20 -65 20
-58 0 -65 -2 -65 -20z"/>
<path d="M17730 16090 c0 -19 5 -21 62 -18 50 2 63 6 66 21 3 15 -5 17 -62 17
-60 0 -66 -2 -66 -20z"/>
<path d="M17990 16090 c0 -13 7 -20 20 -20 13 0 20 -7 20 -20 0 -13 7 -20 20
-20 17 0 20 7 20 40 l0 40 -40 0 c-33 0 -40 -3 -40 -20z"/>
<path d="M8763 16069 c-6 -6 -9 -19 -6 -28 4 -9 2 -13 -2 -8 -12 11 -63 -85
-53 -99 6 -8 3 -11 -7 -10 -15 1 -51 -53 -106 -159 -35 -68 -54 -100 -63 -106
-5 -4 -5 -12 -1 -19 5 -8 4 -11 -2 -7 -10 6 -20 -9 -23 -31 -1 -4 -7 -14 -14
-22 -22 -27 -48 -73 -38 -66 6 3 14 1 18 -5 4 -7 3 -9 -2 -6 -6 3 -14 3 -20
-1 -11 -8 -74 -105 -74 -115 0 -3 -25 -46 -55 -96 -30 -50 -55 -93 -55 -97 0
-3 -9 -19 -21 -35 -11 -16 -17 -33 -14 -39 3 -6 -1 -13 -9 -16 -15 -6 -34 -34
-100 -155 l-36 -66 33 -1 c17 0 121 0 230 -1 l197 -1 0 -749 c0 -674 2 -749
16 -755 9 -3 56 -6 105 -6 88 0 89 0 89 -25 0 -18 5 -25 20 -25 11 0 21 5 21
10 1 6 2 16 3 23 1 8 31 13 104 15 l102 3 0 754 0 755 236 0 236 0 -17 26
c-10 15 -52 88 -95 163 -43 75 -83 135 -90 133 -6 -1 -9 2 -5 8 6 9 -8 37
-100 200 -80 142 -112 190 -120 182 -5 -4 -6 -2 -3 3 8 13 -78 171 -91 168 -6
-2 -8 4 -5 11 3 8 -4 24 -15 35 -12 12 -19 21 -15 21 7 0 -118 221 -140 247
-1 2 -7 -2 -13 -8z m-73 -187 c0 -5 -7 -17 -15 -28 -14 -18 -14 -17 -4 9 12
27 19 34 19 19z m-217 -409 c-3 -7 -6 -13 -8 -13 -2 0 -5 6 -8 13 -3 8 1 14 8
14 7 0 11 -6 8 -14z"/>
<path d="M19265 15916 c-94 -19 -158 -41 -232 -82 -73 -40 -93 -65 -93 -114 1
-39 14 -61 47 -78 35 -19 58 -14 140 28 187 95 355 93 525 -7 31 -18 66 -33
78 -33 35 0 77 28 88 58 23 66 -9 107 -128 167 -127 64 -289 87 -425 61z"/>
<path d="M18030 15811 c0 -50 4 -70 14 -74 22 -9 26 2 26 75 0 61 -2 68 -20
68 -18 0 -20 -7 -20 -69z"/>
<path d="M18030 15547 l0 -43 40 4 c31 3 40 8 40 23 0 12 -7 19 -20 19 -13 0
-20 7 -20 20 0 13 -7 20 -20 20 -17 0 -20 -7 -20 -43z"/>
<path d="M19286 15579 c-61 -14 -102 -38 -115 -65 -19 -42 -13 -83 15 -110 21
-22 31 -25 67 -21 143 19 157 19 200 4 88 -30 147 13 147 108 0 52 -1 53 -32
58 -18 3 -58 13 -88 21 -59 17 -133 19 -194 5z"/>
<path d="M18240 15530 c0 -18 7 -20 60 -20 53 0 60 2 60 20 0 18 -7 20 -60 20
-53 0 -60 -2 -60 -20z"/>
<path d="M18490 15530 c0 -11 6 -20 13 -21 105 -5 107 -5 107 19 0 20 -4 22
-60 22 -53 0 -60 -2 -60 -20z"/>
<path d="M18737 15544 c-4 -4 -7 -13 -7 -21 0 -9 18 -13 66 -13 57 0 65 2 62
18 -2 13 -15 18 -58 20 -31 2 -59 0 -63 -4z"/>
<path d="M18980 15530 c0 -18 7 -20 60 -20 53 0 60 2 60 20 0 18 -7 20 -60 20
-53 0 -60 -2 -60 -20z"/>
<path d="M19720 15530 c0 -18 6 -20 66 -20 57 0 65 2 62 18 -3 14 -16 18 -66
20 -57 3 -62 1 -62 -18z"/>
<path d="M19970 15530 c0 -18 7 -20 60 -20 53 0 60 2 60 20 0 18 -7 20 -60 20
-53 0 -60 -2 -60 -20z"/>
<path d="M20220 15530 c0 -18 7 -20 60 -20 53 0 60 2 60 20 0 18 -7 20 -60 20
-53 0 -60 -2 -60 -20z"/>
<path d="M20470 15530 c0 -18 7 -20 60 -20 53 0 60 2 60 20 0 18 -7 20 -60 20
-53 0 -60 -2 -60 -20z"/>
<path d="M20717 15543 c-4 -3 -7 -12 -7 -20 0 -9 18 -13 65 -13 58 0 65 2 65
20 0 18 -7 20 -58 20 -32 0 -62 -3 -65 -7z"/>
<path d="M9250 14755 c0 -58 2 -65 20 -65 18 0 20 7 20 65 0 58 -2 65 -20 65
-18 0 -20 -7 -20 -65z"/>
<path d="M23560 14590 c0 -18 7 -20 65 -20 58 0 65 2 65 20 0 18 -7 20 -65 20
-58 0 -65 -2 -65 -20z"/>
<path d="M23830 14591 c0 -17 9 -20 65 -23 63 -3 77 3 68 30 -3 8 -26 12 -69
12 -56 0 -64 -2 -64 -19z"/>
<path d="M24100 14590 c0 -13 7 -20 20 -20 15 0 20 -7 20 -25 0 -18 5 -25 20
-25 17 0 20 7 20 45 l0 45 -40 0 c-33 0 -40 -3 -40 -20z"/>
<path d="M9250 14494 c0 -57 2 -65 18 -62 14 3 18 16 20 66 3 57 1 62 -18 62
-18 0 -20 -6 -20 -66z"/>
<path d="M10792 14383 c-38 -65 -90 -154 -115 -198 l-46 -80 5001 -3 c2751 -1
5003 0 5005 1 2 2 -5 33 -16 68 -24 77 -51 219 -51 264 0 18 -3 40 -6 49 -6
15 -443 16 -4855 16 l-4848 0 -69 -117z"/>
<path d="M24140 14325 c0 -58 2 -65 20 -65 18 0 20 7 20 65 0 58 -2 65 -20 65
-18 0 -20 -7 -20 -65z"/>
<path d="M9586 14320 c-48 -53 -95 -149 -112 -229 -11 -55 -14 -315 -14 -1548
l0 -1483 -335 0 c-184 0 -334 3 -334 8 1 4 1 31 0 60 -1 45 -4 52 -21 52 -18
0 -20 -7 -20 -60 l0 -60 -615 0 -615 0 0 -215 c0 -208 -1 -215 -20 -215 -13 0
-20 -7 -20 -20 0 -13 7 -20 20 -20 19 0 20 -7 20 -95 l0 -95 970 0 970 0 0
-120 0 -120 -970 0 -970 0 0 -330 0 -330 970 0 970 0 0 -235 c0 -202 -2 -235
-15 -235 -8 0 -15 -9 -15 -20 0 -11 7 -20 15 -20 13 0 15 -74 15 -603 0 -332
3 -698 7 -813 l6 -209 153 0 c84 0 155 -3 158 -6 3 -3 6 -199 6 -436 l1 -431
42 -13 c34 -11 441 -14 2230 -16 1276 -2 2187 -7 2187 -12 0 -5 -20 -148 -45
-317 -25 -169 -45 -309 -45 -310 0 -2 -985 -4 -2190 -4 l-2190 0 0 -130 0
-130 -319 0 -318 0 -58 -62 c-32 -35 -165 -173 -294 -308 -195 -203 -526 -548
-656 -685 -16 -17 -82 -85 -145 -151 -63 -66 -205 -214 -315 -329 -110 -115
-242 -252 -292 -304 l-93 -96 3 -310 2 -310 8295 0 8295 0 2 310 2 310 -236
245 c-130 135 -327 339 -437 455 -111 115 -253 264 -317 330 -221 230 -327
340 -375 392 -27 29 -204 215 -394 413 l-345 360 -2392 0 c-1316 0 -2393 2
-2393 4 0 3 -22 142 -50 310 -27 168 -50 311 -50 318 0 11 408 12 2142 10
1493 -2 2168 1 2226 8 85 11 166 43 229 90 18 13 29 28 26 33 -3 6 -1 7 5 3
18 -11 90 71 127 144 18 36 38 90 44 120 19 86 29 2801 11 2835 l-13 25 -208
0 c-196 0 -209 -1 -219 -19 -7 -13 -10 -291 -10 -830 l0 -811 -5670 0 -5670 0
0 720 0 720 385 0 385 0 0 330 0 330 -385 0 -385 0 0 120 0 120 385 0 385 0 0
330 0 330 -385 0 -385 0 0 1401 0 1401 -119 207 c-65 113 -129 225 -142 248
-13 24 -27 43 -30 43 -4 0 -23 -18 -43 -40z m-1609 -3370 c24 -17 49 -27 55
-24 6 4 8 3 5 -3 -3 -5 5 -31 18 -58 36 -70 34 -135 -7 -205 l-32 -55 -8 45
c-11 65 -52 103 -117 107 -28 1 -53 -2 -56 -7 -3 -6 -12 -10 -18 -10 -7 0 -6
4 3 10 13 8 12 10 -4 10 -10 0 -34 -17 -53 -37 -29 -30 -34 -42 -30 -69 9 -54
-19 -51 -51 6 -24 42 -28 59 -26 110 2 33 11 74 19 90 8 16 14 32 13 34 -5 7
35 46 43 41 4 -3 11 0 15 6 5 8 3 9 -7 4 -8 -5 -11 -4 -6 0 4 5 17 10 28 12
12 2 29 8 38 13 9 5 42 10 75 10 48 0 65 -5 103 -30z m2321 -68 c2 -12 -1 -22
-7 -22 -6 0 -477 0 -1046 0 -569 0 -1046 0 -1059 0 -16 0 -23 5 -22 18 1 16
60 17 1056 22 580 3 1060 5 1065 4 6 0 11 -10 13 -22z m-8 -104 l0 -23 -1060
0 -1060 0 0 23 0 22 1060 0 1060 0 0 -22z m0 -91 l0 -22 -1062 2 c-1011 2
-1063 3 -1063 20 0 10 5 20 12 23 7 3 485 4 1063 2 l1050 -2 0 -23z m3 -94 l4
-23 -1062 0 c-1044 0 -1063 0 -1068 19 -3 15 1 21 17 23 11 2 490 3 1063 3
l1042 0 4 -22z m-2322 -542 c73 -36 117 -125 104 -210 -3 -25 -7 -56 -8 -68
-1 -12 -4 -20 -6 -18 -1 2 -13 -8 -25 -22 l-23 -26 -7 43 c-5 30 -17 53 -41
77 -34 34 -36 35 -104 31 -63 -4 -72 -8 -100 -39 -31 -33 -43 -67 -18 -53 8 5
8 2 -2 -9 -10 -13 -11 -20 -2 -31 9 -10 7 -13 -11 -12 -35 2 -71 82 -71 156 2
162 165 256 314 181z m-232 12 c14 11 14 10 2 -6 -10 -13 -17 -15 -27 -6 -8 6
-14 14 -14 17 0 3 5 1 12 -6 9 -9 15 -9 27 1z m2551 -83 c0 -20 -9 -20 -1057
-22 -582 -2 -1061 -2 -1065 0 -3 1 -4 11 -1 22 5 20 14 20 1064 20 1051 0
1059 0 1059 -20z m0 -100 c0 -20 -7 -20 -1059 -20 -1050 0 -1059 0 -1064 20
-5 20 0 20 1059 20 1057 0 1064 0 1064 -20z m-1034 -70 l1034 0 0 -25 0 -25
-1062 2 c-1002 3 -1061 4 -1064 20 -3 20 24 40 44 33 8 -3 479 -5 1048 -5z
m-1286 -10 c0 -5 -2 -10 -4 -10 -3 0 -8 5 -11 10 -3 6 -1 10 4 10 6 0 11 -4
11 -10z m-270 -105 c0 -5 -5 -3 -10 5 -5 8 -10 20 -10 25 0 6 5 3 10 -5 5 -8
10 -19 10 -25z m2593 -5 c3 -10 1 -20 -4 -22 -5 -2 -484 -2 -1064 0 -1033 2
-1055 3 -1055 21 0 13 8 21 23 23 12 2 488 2 1058 0 1017 -2 1037 -3 1042 -22z
m5490 -2765 c-3 -9 -8 -14 -10 -11 -3 3 -2 9 2 15 9 16 15 13 8 -4z"/>
<path d="M7839 10903 c-1 -5 -1 -11 0 -15 0 -4 -6 -5 -14 -2 -9 4 -16 -3 -20
-19 -9 -35 2 -65 31 -83 20 -14 29 -14 55 -4 72 30 49 130 -30 130 -12 0 -22
-3 -22 -7z"/>
<path d="M7823 9990 c-21 -21 -29 -80 -13 -80 6 0 8 5 4 12 -4 7 -3 8 4 4 6
-4 9 -13 6 -21 -3 -7 4 -19 16 -25 29 -16 78 4 91 36 24 64 -63 123 -108 74z"/>
<path d="M9249 14268 c-6 -66 0 -88 22 -88 18 0 20 6 17 62 -2 49 -7 63 -19
66 -13 2 -18 -6 -20 -40z"/>
<path d="M24140 14065 c0 -58 2 -65 20 -65 18 0 20 7 20 65 0 58 -2 65 -20 65
-18 0 -20 -7 -20 -65z"/>
<path d="M9250 13985 c0 -58 2 -65 20 -65 18 0 20 7 20 65 0 58 -2 65 -20 65
-18 0 -20 -7 -20 -65z"/>
<path d="M24140 13805 c0 -58 2 -65 20 -65 18 0 20 7 20 65 0 58 -2 65 -20 65
-18 0 -20 -7 -20 -65z"/>
<path d="M9250 13736 c0 -60 2 -66 20 -66 19 0 21 5 18 62 -2 50 -6 63 -20 66
-16 3 -18 -5 -18 -62z"/>
<path d="M24140 13555 c0 -58 2 -65 20 -65 18 0 20 7 20 65 0 58 -2 65 -20 65
-18 0 -20 -7 -20 -65z"/>
<path d="M9250 13475 c0 -58 2 -65 20 -65 18 0 20 7 20 65 0 58 -2 65 -20 65
-18 0 -20 -7 -20 -65z"/>
<path d="M11710 11065 l0 -2345 705 2 706 3 24 55 c20 47 33 79 40 100 2 7 13
32 43 105 61 148 92 228 92 236 0 5 -230 9 -520 9 l-520 0 0 130 0 130 578 0
577 0 41 105 41 105 -621 0 -621 0 5 130 5 131 668 -1 668 0 15 37 c9 21 24
56 34 78 10 23 22 53 25 68 l7 27 -713 0 -714 0 0 130 0 130 767 0 c749 0 768
0 778 19 5 11 23 56 40 100 l29 81 -804 0 -804 0 -3 135 -3 135 862 0 863 0
16 38 c21 49 64 155 64 159 0 2 -404 3 -898 3 -494 0 -901 2 -903 4 -2 2 -3
63 -1 135 l3 131 955 0 955 0 15 38 c8 20 19 46 24 57 13 29 40 97 40 101 0 2
-448 5 -996 6 l-995 3 0 130 0 130 1052 5 1052 5 29 75 c16 41 33 83 39 92 5
10 9 20 9 23 0 3 -490 5 -1089 5 l-1090 0 -3 131 c-2 72 -1 133 1 135 2 2 519
4 1148 4 l1143 0 10 23 c5 12 23 54 39 94 17 39 31 74 31 77 0 3 -533 6 -1185
6 l-1185 0 0 125 c0 112 -2 125 -17 126 -15 0 -15 2 2 9 11 5 577 9 1257 9
l1237 1 21 48 c12 26 42 99 66 162 25 63 54 133 64 156 11 23 20 48 20 56 0 8
4 18 8 23 9 10 72 167 72 178 0 4 -742 7 -1650 7 l-1650 0 0 -2345z"/>
<path d="M24140 13295 c0 -58 2 -65 20 -65 18 0 20 7 20 65 0 58 -2 65 -20 65
-18 0 -20 -7 -20 -65z"/>
<path d="M21260 12531 c0 -445 3 -816 6 -825 5 -14 35 -16 218 -18 l211 -3
-207 -2 -208 -3 0 -80 c0 -47 -4 -80 -10 -80 -6 0 -10 -27 -10 -60 l0 -60 228
2 227 3 3 51 c2 36 -1 54 -13 64 -20 17 -21 130 0 170 13 25 15 128 15 750 -1
558 -3 722 -13 724 -7 2 -50 14 -97 27 -96 26 -160 52 -272 110 l-78 40 0
-810z"/>
<path d="M9250 13220 c0 -53 2 -60 20 -60 18 0 20 7 20 60 0 53 -2 60 -20 60
-18 0 -20 -7 -20 -60z"/>
<path d="M8750 13136 c0 -59 2 -66 20 -66 18 0 20 7 20 55 0 30 1 58 3 63 1 4
-8 8 -20 10 -22 3 -23 0 -23 -62z"/>
<path d="M24140 13035 c0 -58 2 -65 20 -65 18 0 20 7 20 65 0 58 -2 65 -20 65
-18 0 -20 -7 -20 -65z"/>
<path d="M9158 13052 c-20 -2 -28 -9 -28 -23 0 -17 7 -19 65 -19 57 0 65 2 65
19 0 15 -9 20 -37 22 -21 2 -50 3 -65 1z"/>
<path d="M7110 13021 c0 -36 13 -46 33 -26 9 8 27 15 41 15 19 0 26 5 26 20 0
17 -7 20 -50 20 -49 0 -50 -1 -50 -29z"/>
<path d="M7340 13030 c0 -18 7 -20 65 -20 58 0 65 2 65 20 0 18 -7 20 -65 20
-58 0 -65 -2 -65 -20z"/>
<path d="M7600 13030 c0 -19 5 -21 62 -18 50 2 63 6 66 21 3 15 -5 17 -62 17
-60 0 -66 -2 -66 -20z"/>
<path d="M7852 13033 c3 -15 16 -19 66 -21 57 -3 62 -1 62 18 0 18 -6 20 -66
20 -57 0 -65 -2 -62 -17z"/>
<path d="M8110 13030 c0 -18 7 -20 65 -20 58 0 65 2 65 20 0 18 -7 20 -65 20
-58 0 -65 -2 -65 -20z"/>
<path d="M8360 13030 c0 -18 7 -20 65 -20 58 0 65 2 65 20 0 18 -7 20 -65 20
-58 0 -65 -2 -65 -20z"/>
<path d="M8620 13030 c0 -18 7 -20 65 -20 58 0 65 2 65 20 0 18 -7 20 -65 20
-58 0 -65 -2 -65 -20z"/>
<path d="M8880 13030 c0 -18 7 -20 60 -20 53 0 60 2 60 20 0 18 -7 20 -60 20
-53 0 -60 -2 -60 -20z"/>
<path d="M17108 12904 l-3 -125 -75 -25 c-41 -14 -97 -37 -124 -50 l-49 -25
-26 23 c-14 13 -54 51 -89 86 -35 34 -66 62 -70 62 -4 0 -71 -64 -150 -143
l-142 -142 89 -89 90 -89 -31 -61 c-17 -34 -41 -90 -53 -126 l-22 -65 -126 -3
-127 -3 0 -204 0 -205 124 0 125 0 16 -57 c9 -31 32 -88 51 -126 19 -38 34
-73 32 -78 -2 -5 -41 -48 -88 -94 l-84 -85 144 -145 145 -145 90 89 90 89 50
-29 c28 -16 85 -41 127 -56 l78 -28 0 -128 0 -127 208 2 207 3 3 126 3 125 69
22 c37 13 95 36 127 52 l58 30 90 -90 90 -90 145 145 145 145 -89 89 -88 88
40 84 c23 46 46 105 53 132 l11 47 129 0 129 0 0 205 0 205 -128 0 -127 0 -18
63 c-10 34 -33 91 -52 127 l-33 65 91 93 92 92 -148 147 -147 148 -92 -91 -93
-91 -50 29 c-27 15 -84 39 -125 52 l-75 24 -3 126 -3 126 -204 0 -204 0 -3
-126z m297 -608 c116 -31 210 -107 262 -213 25 -53 28 -68 28 -163 0 -99 -2
-110 -33 -172 -64 -130 -181 -206 -332 -215 -211 -14 -389 142 -407 354 -21
265 228 477 482 409z"/>
<path d="M8763 12943 c-19 -7 -17 -119 1 -126 22 -9 26 2 26 64 0 59 -5 70
-27 62z"/>
<path d="M7117 12853 c-4 -3 -7 -33 -7 -65 0 -51 2 -58 20 -58 18 0 20 7 20
65 0 48 -4 65 -13 65 -8 0 -17 -3 -20 -7z"/>
<path d="M24140 12775 c0 -58 2 -65 20 -65 18 0 20 7 20 65 0 58 -2 65 -20 65
-18 0 -20 -7 -20 -65z"/>
<path d="M8750 12624 c0 -61 1 -65 21 -62 19 3 21 10 23 66 1 58 0 62 -21 62
-22 0 -23 -4 -23 -66z"/>
<path d="M7112 12538 c2 -50 6 -63 21 -66 15 -3 17 5 17 62 0 60 -2 66 -20 66
-19 0 -21 -5 -18 -62z"/>
<path d="M24140 12560 c0 -13 -7 -20 -20 -20 -13 0 -20 -7 -20 -20 0 -17 7
-20 40 -20 l40 0 0 40 c0 33 -3 40 -20 40 -13 0 -20 -7 -20 -20z"/>
<path d="M22490 12495 c0 -38 3 -45 20 -45 15 0 20 7 20 25 0 18 5 25 20 25
13 0 20 7 20 20 0 17 -7 20 -40 20 l-40 0 0 -45z"/>
<path d="M22710 12520 c0 -18 7 -20 70 -20 63 0 70 2 70 20 0 18 -7 20 -70 20
-63 0 -70 -2 -70 -20z"/>
<path d="M22990 12520 c0 -18 6 -20 71 -20 62 0 70 2 67 18 -3 14 -16 18 -71
20 -62 3 -67 1 -67 -18z"/>
<path d="M23270 12520 c0 -18 7 -20 65 -20 58 0 65 2 65 20 0 18 -7 20 -65 20
-58 0 -65 -2 -65 -20z"/>
<path d="M23540 12520 c0 -18 7 -20 70 -20 63 0 70 2 70 20 0 18 -7 20 -70 20
-63 0 -70 -2 -70 -20z"/>
<path d="M23820 12520 c0 -18 7 -20 60 -20 33 0 63 -1 68 -2 4 -2 8 7 10 20 3
21 0 22 -67 22 -64 0 -71 -2 -71 -20z"/>
<path d="M8750 12375 c0 -58 2 -65 20 -65 18 0 20 7 20 65 0 58 -2 65 -20 65
-18 0 -20 -7 -20 -65z"/>
<path d="M7117 12343 c-4 -3 -7 -33 -7 -65 0 -51 2 -58 20 -58 18 0 20 7 20
65 0 48 -4 65 -13 65 -8 0 -17 -3 -20 -7z"/>
<path d="M22490 12265 c0 -58 2 -65 20 -65 18 0 20 7 20 65 0 58 -2 65 -20 65
-18 0 -20 -7 -20 -65z"/>
<path d="M8757 12183 c-4 -3 -7 -33 -7 -65 0 -53 2 -58 23 -58 21 0 22 3 19
65 -4 61 -14 79 -35 58z"/>
<path d="M7110 12025 c0 -58 2 -65 20 -65 18 0 20 7 20 65 0 58 -2 65 -20 65
-18 0 -20 -7 -20 -65z"/>
<path d="M22490 12015 c0 -58 2 -65 20 -65 18 0 20 7 20 65 0 58 -2 65 -20 65
-18 0 -20 -7 -20 -65z"/>
<path d="M8750 11870 c0 -57 1 -60 24 -60 18 0 23 5 21 18 -2 9 -4 36 -4 60
-1 35 -4 42 -21 42 -18 0 -20 -7 -20 -60z"/>
<path d="M7128 11833 c-15 -4 -18 -16 -18 -64 0 -52 2 -59 20 -59 18 0 20 7
20 65 0 36 -1 64 -2 64 -2 -1 -11 -3 -20 -6z"/>
<path d="M22492 11768 c2 -48 7 -63 18 -63 12 0 15 13 15 60 0 50 -3 60 -18
63 -16 3 -18 -3 -15 -60z"/>
<path d="M15703 11775 c-22 -59 -63 -161 -88 -225 -15 -36 -49 -121 -77 -190
-27 -69 -54 -134 -58 -145 -5 -11 -36 -87 -69 -170 -58 -149 -72 -182 -97
-240 -7 -17 -26 -67 -43 -110 -16 -44 -50 -129 -75 -190 -46 -109 -46 -111
-45 -218 0 -60 -2 -111 -5 -115 -4 -3 -24 -5 -45 -3 -37 2 -38 2 -64 -61 -14
-35 -29 -75 -33 -91 -3 -15 -10 -30 -15 -33 -28 -17 -2 -25 74 -23 l82 2 3
-114 c2 -75 7 -116 15 -121 9 -6 9 -8 -1 -8 -7 0 -11 -3 -9 -7 3 -5 -1 -14 -9
-21 -9 -8 -14 -9 -14 -2 0 7 -42 10 -127 8 -147 -3 -129 11 -193 -155 l-20
-53 183 0 182 0 0 -130 0 -130 -235 0 -236 0 -13 -32 c-7 -18 -26 -67 -41
-108 -36 -94 -73 -185 -112 -275 -17 -38 -33 -76 -35 -82 -4 -10 95 -13 474
-13 l478 0 18 53 c18 52 42 115 58 152 5 11 54 141 109 290 l100 269 -2 1161
c-2 890 -6 1153 -15 1130z"/>
<path d="M8752 11618 c2 -49 7 -63 20 -66 20 -4 24 14 20 79 -3 41 -7 49 -23
49 -18 0 -20 -6 -17 -62z"/>
<path d="M7110 11515 c0 -58 2 -65 20 -65 18 0 20 7 20 65 0 58 -2 65 -20 65
-18 0 -20 -7 -20 -65z"/>
<path d="M22490 11485 c0 -28 4 -35 20 -35 16 0 20 7 20 35 0 28 -4 35 -20 35
-16 0 -20 -7 -20 -35z"/>
<path d="M18908 11399 l-3 -101 -55 -17 c-30 -10 -73 -27 -95 -38 l-41 -21
-73 71 -74 70 -114 -116 -115 -117 71 -69 72 -70 -30 -58 c-16 -32 -34 -77
-41 -100 l-13 -42 -101 -3 -101 -3 0 -160 0 -160 103 -3 c86 -2 102 -5 102
-19 0 -9 16 -54 36 -100 l37 -85 -69 -69 -68 -68 25 -28 c48 -55 198 -203 205
-203 4 0 36 29 70 65 35 36 68 65 74 65 6 0 30 -10 53 -21 23 -12 64 -29 92
-39 l50 -17 3 -101 3 -102 159 0 160 0 0 99 0 99 53 18 c28 9 74 28 101 41
l49 25 71 -71 71 -71 113 113 c61 62 112 116 112 120 0 4 -30 37 -66 73 l-67
65 25 47 c14 26 33 71 43 100 l17 52 99 0 99 0 0 165 0 165 -98 0 -98 0 -18
58 c-10 31 -27 74 -37 94 -11 21 -19 42 -19 48 0 5 24 34 53 63 90 90 92 73
-20 187 -54 56 -106 106 -117 112 -16 8 -29 0 -86 -57 l-68 -67 -58 27 c-32
15 -76 33 -98 39 l-41 12 -3 102 -3 102 -164 0 -164 0 -3 -101z m291 -499 c72
-31 146 -114 167 -188 59 -201 -85 -395 -292 -395 -91 0 -164 33 -226 102 -58
64 -81 132 -76 219 12 216 227 347 427 262z"/>
<path d="M8750 11365 c0 -62 1 -65 24 -65 18 0 23 5 21 18 -2 9 -4 38 -4 65
-1 40 -4 47 -21 47 -18 0 -20 -7 -20 -65z"/>
<path d="M21270 11383 c0 -5 97 -8 215 -8 118 0 215 3 215 7 0 5 -97 8 -215 8
-118 0 -215 -3 -215 -7z"/>
<path d="M21278 11315 l-3 -45 213 0 213 0 -3 43 -3 42 -206 3 -207 2 -4 -45z"/>
<path d="M7112 11258 c2 -50 6 -63 21 -66 15 -3 17 5 17 62 0 60 -2 66 -20 66
-19 0 -21 -5 -18 -62z"/>
<path d="M21378 11253 c61 -2 163 -2 225 0 61 1 11 3 -113 3 -124 0 -174 -2
-112 -3z"/>
<path d="M21272 11220 c-6 -11 -12 -42 -12 -70 l0 -50 215 0 215 0 -1 -32 c-2
-31 -2 -31 -6 -5 l-4 27 -207 -1 c-114 -1 -199 -3 -190 -6 16 -4 16 -6 4 -19
-10 -10 -12 -22 -7 -42 5 -15 5 -37 0 -49 -5 -13 -4 -25 2 -28 5 -4 3 -13 -6
-21 -17 -17 -22 -134 -5 -134 5 0 7 -7 4 -15 -5 -13 21 -15 199 -15 187 0 206
2 210 18 4 13 5 12 6 -5 l1 -23 -212 -3 -213 -2 221 -3 c170 -1 221 1 222 11
13 112 13 157 3 157 -7 0 -10 4 -7 8 3 5 -1 21 -9 36 -10 18 -10 24 -2 19 7
-4 7 0 -2 10 -7 9 -9 17 -4 17 10 0 13 13 16 68 1 17 5 32 9 32 13 0 8 104 -6
123 -12 15 -35 17 -217 17 -193 0 -205 -1 -217 -20z"/>
<path d="M22490 11210 c0 -5 9 -10 21 -10 11 0 17 5 14 10 -3 6 -13 10 -21 10
-8 0 -14 -4 -14 -10z"/>
<path d="M7117 11063 c-4 -3 -7 -33 -7 -65 0 -51 2 -58 20 -58 18 0 20 7 20
65 0 48 -4 65 -13 65 -8 0 -17 -3 -20 -7z"/>
<path d="M22490 10810 c0 -15 5 -20 18 -18 9 2 17 10 17 18 0 8 -8 16 -17 18
-13 2 -18 -3 -18 -18z"/>
<path d="M7112 10748 c2 -50 6 -63 21 -66 15 -3 17 5 17 62 0 60 -2 66 -20 66
-19 0 -21 -5 -18 -62z"/>
<path d="M21286 10708 c-3 -13 -7 -38 -9 -55 l-4 -33 216 0 216 0 -3 54 -4 55
-204 1 -203 1 -5 -23z"/>
<path d="M6034 10616 c-3 -8 -4 -27 -2 -43 4 -35 35 -44 40 -11 2 15 11 24 26
26 15 2 22 9 20 20 -4 23 -76 30 -84 8z"/>
<path d="M6240 10610 c0 -18 7 -20 60 -20 53 0 60 2 60 20 0 18 -7 20 -60 20
-53 0 -60 -2 -60 -20z"/>
<path d="M6490 10610 c0 -18 7 -20 60 -20 53 0 60 2 60 20 0 18 -7 20 -60 20
-53 0 -60 -2 -60 -20z"/>
<path d="M6737 10623 c-4 -3 -7 -12 -7 -20 0 -9 17 -13 65 -13 58 0 65 2 65
20 0 18 -7 20 -58 20 -32 0 -62 -3 -65 -7z"/>
<path d="M6980 10610 c0 -18 7 -20 60 -20 53 0 60 2 60 20 0 18 -7 20 -60 20
-53 0 -60 -2 -60 -20z"/>
<path d="M7230 10610 c0 -18 7 -20 60 -20 53 0 60 2 60 20 0 18 -7 20 -60 20
-53 0 -60 -2 -60 -20z"/>
<path d="M21260 10550 c0 -41 4 -60 13 -60 8 0 12 -22 12 -77 l0 -78 172 0
c94 0 175 -3 179 -7 9 -10 13 -10 -178 -8 -97 1 -165 -3 -178 -10 -16 -9 -20
-20 -20 -63 0 -29 4 -57 8 -64 12 -18 432 -20 443 -1 5 7 9 36 9 65 0 50 -8
65 -38 69 -25 4 -27 15 -4 21 25 6 30 41 10 61 -10 10 -10 15 2 22 8 5 11 12
8 16 -4 3 0 23 8 44 8 21 14 57 12 81 l-3 44 -227 3 -228 2 0 -60z"/>
<path d="M22490 10535 c0 -38 3 -45 20 -45 17 0 20 7 20 45 0 38 -3 45 -20 45
-17 0 -20 -7 -20 -45z"/>
<path d="M7110 10495 c0 -58 2 -65 20 -65 18 0 20 7 20 65 0 58 -2 65 -20 65
-18 0 -20 -7 -20 -65z"/>
<path d="M17450 10382 l0 -69 -71 -28 -71 -27 -49 48 -49 49 -82 -83 -83 -82
49 -49 48 -49 -28 -71 -29 -70 -70 -3 -70 -3 0 -115 0 -115 72 -3 c67 -3 71
-4 78 -29 3 -15 15 -45 26 -66 l19 -40 -47 -54 -46 -55 80 -80 80 -80 48 47
c30 29 54 45 64 41 9 -2 42 -15 73 -28 l58 -23 0 -72 0 -73 115 0 115 0 0 75
c0 53 4 75 13 75 6 0 39 12 72 25 l60 25 50 -50 50 -50 82 82 83 82 -51 52
c-49 49 -50 53 -36 75 8 13 22 45 32 72 l18 47 68 0 69 0 0 115 0 115 -69 0
-69 0 -17 48 c-8 26 -22 58 -30 72 -13 24 -11 27 37 77 l52 52 -84 81 -83 81
-50 -49 -50 -50 -51 23 c-28 13 -59 26 -68 29 -15 4 -18 17 -18 76 l0 70 -120
0 -120 0 0 -68z m220 -366 c68 -34 103 -91 108 -175 6 -103 -33 -167 -128
-210 -202 -92 -390 161 -248 333 68 83 166 102 268 52z"/>
<path d="M6030 10345 c0 -57 2 -65 19 -65 25 0 27 8 23 75 -3 46 -7 55 -23 55
-17 0 -19 -8 -19 -65z"/>
<path d="M22490 10256 c0 -50 2 -56 21 -56 18 0 20 5 17 52 -2 41 -7 54 -20
56 -15 3 -18 -5 -18 -52z"/>
<path d="M7110 10235 c0 -58 2 -65 20 -65 18 0 20 7 20 65 0 58 -2 65 -20 65
-18 0 -20 -7 -20 -65z"/>
<path d="M6048 10153 c-15 -4 -18 -16 -18 -69 0 -57 2 -64 20 -64 18 0 20 7
20 70 0 39 -1 69 -2 69 -2 -1 -11 -3 -20 -6z"/>
<path d="M21280 10080 c0 -47 -4 -80 -10 -80 -6 0 -10 -27 -10 -60 l0 -60 228
2 227 3 3 48 c2 35 -2 55 -17 75 -13 19 -16 33 -10 44 7 13 7 33 0 101 -1 4
-93 7 -206 7 l-205 0 0 -80z"/>
<path d="M7110 9980 c0 -53 2 -60 20 -60 18 0 20 7 20 60 0 53 -2 60 -20 60
-18 0 -20 -7 -20 -60z"/>
<path d="M22490 9975 c0 -18 5 -25 20 -25 15 0 20 7 20 25 0 18 -5 25 -20 25
-15 0 -20 -7 -20 -25z"/>
<path d="M6030 9824 c0 -62 1 -65 23 -62 12 2 21 6 20 11 -2 4 -3 32 -3 62 0
48 -2 55 -20 55 -18 0 -20 -7 -20 -66z"/>
<path d="M21270 9860 c0 -5 7 -10 16 -10 14 0 14 -3 3 -16 -10 -13 -10 -17 2
-25 8 -5 9 -9 3 -9 -7 0 -14 -11 -16 -25 l-5 -25 217 0 218 0 -5 23 c-3 12
-11 28 -16 35 -8 10 -7 16 3 22 10 6 3 10 -21 13 l-34 4 33 1 c17 1 32 7 32
12 0 6 -78 10 -215 10 -137 0 -215 -4 -215 -10z m347 -16 c-3 -3 -12 -4 -19
-1 -8 3 -5 6 6 6 11 1 17 -2 13 -5z"/>
<path d="M7110 9725 c0 -58 2 -65 20 -65 18 0 20 7 20 65 0 58 -2 65 -20 65
-18 0 -20 -7 -20 -65z"/>
<path d="M21378 9733 c61 -2 163 -2 225 0 61 1 11 3 -113 3 -124 0 -174 -2
-112 -3z"/>
<path d="M6030 9570 c0 -45 4 -62 15 -67 22 -8 22 -6 27 65 4 59 3 62 -19 62
-21 0 -23 -4 -23 -60z"/>
<path d="M22490 9516 c0 -60 2 -66 20 -66 19 0 21 5 18 62 -2 50 -6 63 -20 66
-16 3 -18 -5 -18 -62z"/>
<path d="M7112 9468 c2 -50 6 -63 21 -66 15 -3 17 5 17 62 0 60 -2 66 -20 66
-19 0 -21 -5 -18 -62z"/>
<path d="M6030 9305 c0 -57 2 -65 19 -65 25 0 27 8 23 75 -3 46 -7 55 -23 55
-17 0 -19 -8 -19 -65z"/>
<path d="M22490 9265 c0 -58 2 -65 20 -65 18 0 20 7 20 65 0 58 -2 65 -20 65
-18 0 -20 -7 -20 -65z"/>
<path d="M7110 9215 c0 -58 2 -65 20 -65 18 0 20 7 20 65 0 58 -2 65 -20 65
-18 0 -20 -7 -20 -65z"/>
<path d="M6030 9056 c0 -59 2 -66 20 -66 18 0 20 7 20 55 0 30 1 58 3 63 1 4
-8 8 -20 10 -22 3 -23 0 -23 -62z"/>
<path d="M22490 9016 c0 -60 2 -66 20 -66 19 0 21 5 18 62 -2 50 -6 63 -20 66
-16 3 -18 -5 -18 -62z"/>
<path d="M7123 9023 c-7 -2 -13 -11 -13 -19 0 -11 16 -14 70 -14 63 0 70 2 70
20 0 18 -6 20 -57 19 -32 0 -64 -3 -70 -6z"/>
<path d="M7380 9010 c0 -18 7 -20 65 -20 58 0 65 2 65 20 0 18 -7 20 -65 20
-58 0 -65 -2 -65 -20z"/>
<path d="M7640 9010 c0 -18 7 -20 60 -20 53 0 60 2 60 20 0 18 -7 20 -60 20
-53 0 -60 -2 -60 -20z"/>
<path d="M7890 9010 c0 -18 7 -20 65 -20 58 0 65 2 65 20 0 18 -7 20 -65 20
-58 0 -65 -2 -65 -20z"/>
<path d="M8150 9010 c0 -18 7 -20 65 -20 58 0 65 2 65 20 0 18 -7 20 -65 20
-58 0 -65 -2 -65 -20z"/>
<path d="M8400 9010 c0 -18 7 -20 65 -20 58 0 65 2 65 20 0 18 -7 20 -65 20
-58 0 -65 -2 -65 -20z"/>
<path d="M8660 9010 c0 -18 7 -20 65 -20 58 0 65 2 65 20 0 18 -7 20 -65 20
-58 0 -65 -2 -65 -20z"/>
<path d="M8910 9010 c0 -18 7 -20 65 -20 58 0 65 2 65 20 0 18 -7 20 -65 20
-58 0 -65 -2 -65 -20z"/>
<path d="M9170 9010 c0 -18 7 -20 65 -20 58 0 65 2 65 20 0 18 -7 20 -65 20
-58 0 -65 -2 -65 -20z"/>
<path d="M6030 8796 c0 -55 3 -64 20 -69 19 -5 20 0 20 64 0 62 -2 69 -20 69
-18 0 -20 -7 -20 -64z"/>
<path d="M22490 8766 c0 -60 2 -66 20 -66 19 0 21 5 18 62 -2 50 -6 63 -20 66
-16 3 -18 -5 -18 -62z"/>
<path d="M6030 8535 c0 -57 2 -65 19 -65 16 0 20 9 23 55 4 67 2 75 -23 75
-17 0 -19 -8 -19 -65z"/>
<path d="M22490 8516 c0 -60 2 -66 20 -66 19 0 21 5 18 62 -2 50 -6 63 -20 66
-16 3 -18 -5 -18 -62z"/>
<path d="M6037 8333 c-4 -3 -7 -24 -7 -45 l0 -38 45 0 c38 0 45 3 45 19 0 13
-8 21 -22 23 -15 2 -24 11 -26 26 -3 21 -21 29 -35 15z"/>
<path d="M22490 8265 c0 -58 2 -65 20 -65 18 0 20 7 20 65 0 58 -2 65 -20 65
-18 0 -20 -7 -20 -65z"/>
<path d="M6240 8270 c0 -18 7 -20 60 -20 53 0 60 2 60 20 0 18 -7 20 -60 20
-53 0 -60 -2 -60 -20z"/>
<path d="M6480 8270 c0 -18 7 -20 60 -20 53 0 60 2 60 20 0 18 -7 20 -60 20
-53 0 -60 -2 -60 -20z"/>
<path d="M6720 8270 c0 -18 7 -20 60 -20 53 0 60 2 60 20 0 18 -7 20 -60 20
-53 0 -60 -2 -60 -20z"/>
<path d="M6964 8270 c0 -18 7 -20 63 -20 56 0 63 2 63 20 0 18 -7 20 -63 20
-56 0 -63 -2 -63 -20z"/>
<path d="M7204 8270 c0 -18 7 -20 63 -20 56 0 63 2 63 20 0 18 -7 20 -63 20
-56 0 -63 -2 -63 -20z"/>
<path d="M7450 8270 c0 -18 7 -20 60 -20 53 0 60 2 60 20 0 18 -7 20 -60 20
-53 0 -60 -2 -60 -20z"/>
<path d="M7690 8270 c0 -18 7 -20 60 -20 53 0 60 2 60 20 0 18 -7 20 -60 20
-53 0 -60 -2 -60 -20z"/>
<path d="M7930 8270 c0 -18 7 -20 65 -20 58 0 65 2 65 20 0 18 -7 20 -65 20
-58 0 -65 -2 -65 -20z"/>
<path d="M8180 8270 c0 -13 7 -20 20 -20 13 0 20 -7 20 -20 0 -13 7 -20 20
-20 17 0 20 7 20 40 l0 40 -40 0 c-33 0 -40 -3 -40 -20z"/>
<path d="M8220 8030 c0 -53 2 -60 20 -60 18 0 20 7 20 60 0 53 -2 60 -20 60
-18 0 -20 -7 -20 -60z"/>
<path d="M22490 8015 c0 -58 2 -65 20 -65 18 0 20 7 20 65 0 58 -2 65 -20 65
-18 0 -20 -7 -20 -65z"/>
<path d="M8220 7785 c0 -58 2 -65 20 -65 18 0 20 7 20 65 0 58 -2 65 -20 65
-18 0 -20 -7 -20 -65z"/>
<path d="M22490 7765 c0 -58 2 -65 20 -65 18 0 20 7 20 65 0 58 -2 65 -20 65
-18 0 -20 -7 -20 -65z"/>
<path d="M23003 7803 c-24 -2 -43 -9 -43 -15 0 -5 -7 -7 -16 -4 -31 12 -234
-51 -218 -67 3 -3 -2 -3 -13 -1 -41 11 -344 -180 -327 -207 3 -5 -1 -9 -9 -9
-18 0 -49 -34 -40 -44 5 -4 3 -6 -4 -4 -16 4 -84 -72 -76 -85 3 -6 1 -7 -5 -4
-19 12 -148 -213 -138 -240 3 -8 2 -12 -2 -9 -11 7 -56 -110 -48 -123 4 -6 3
-11 -2 -11 -5 0 -9 -6 -9 -12 -1 -7 -9 -47 -18 -88 -23 -101 -16 -341 14 -450
25 -94 62 -192 95 -250 14 -25 35 -62 46 -83 45 -83 178 -224 289 -307 77 -58
266 -154 287 -146 8 3 14 0 14 -6 0 -7 6 -6 16 2 12 11 15 11 12 -1 -2 -9 19
-20 67 -33 57 -16 104 -20 255 -20 172 -1 192 1 280 26 127 36 196 64 192 78
-1 6 2 9 7 5 15 -9 73 24 65 37 -4 7 -3 8 4 4 27 -16 146 70 266 193 43 45 76
81 72 81 -3 0 3 9 14 20 12 12 18 26 14 32 -4 7 -3 8 5 4 6 -4 14 0 18 11 4
10 17 35 30 56 13 21 21 43 17 49 -4 6 -3 8 3 5 13 -8 66 110 57 125 -4 6 -3
8 3 5 6 -4 22 41 39 111 26 105 29 133 29 276 -1 107 -4 161 -12 163 -6 2 -9
12 -6 22 19 73 -171 486 -218 474 -4 -2 -6 3 -3 10 11 29 -241 257 -267 241
-7 -4 -9 -3 -5 4 9 15 -77 64 -100 56 -13 -4 -15 -3 -6 3 27 20 -190 96 -337
118 -90 14 -190 17 -288 8z m87 -394 l1 -304 -53 3 c-118 7 -358 67 -374 94
-4 6 -3 8 3 5 10 -6 63 87 63 111 0 6 4 12 8 14 7 3 87 118 119 172 7 12 13
17 13 11 0 -5 7 1 16 13 8 12 12 27 8 34 -4 7 -3 8 5 4 7 -4 46 25 98 73 48
44 88 79 90 78 1 -2 3 -140 3 -308z m407 257 c11 0 19 -4 16 -8 -2 -5 1 -8 8
-8 22 0 173 -82 224 -121 28 -21 79 -65 114 -98 73 -69 73 -69 -12 -123 -29
-18 -54 -35 -57 -38 -3 -3 -24 -14 -47 -24 -23 -10 -40 -23 -37 -27 3 -5 -3
-6 -12 -2 -12 4 -15 3 -10 -5 5 -8 2 -10 -9 -6 -9 4 -32 39 -52 78 -19 39 -42
75 -49 79 -8 5 -12 13 -8 18 8 13 -153 224 -211 278 -25 23 -45 45 -45 50 0 5
37 -3 83 -16 45 -14 92 -26 104 -27z m-563 36 c3 -5 -10 -24 -29 -42 -19 -18
-31 -38 -28 -43 3 -6 1 -7 -5 -3 -22 13 -198 -223 -187 -251 3 -10 3 -14 -1
-10 -9 8 -26 -15 -60 -82 l-25 -51 -47 27 c-81 47 -181 113 -188 124 -3 6 3
21 15 33 12 12 18 26 14 31 -5 4 -3 6 2 2 6 -3 30 12 55 34 24 21 53 39 63 39
10 0 15 4 12 10 -14 23 193 130 330 170 75 22 73 22 79 12z m371 -107 c40 -38
80 -82 89 -97 10 -15 23 -25 29 -21 5 3 7 1 4 -4 -4 -6 8 -30 27 -54 18 -24
55 -88 83 -142 54 -106 54 -108 -8 -121 -13 -3 -66 -14 -117 -26 -51 -11 -127
-23 -168 -26 l-74 -6 0 299 c0 165 3 303 6 306 8 8 32 -12 129 -108z m-971
-300 c22 -23 132 -91 194 -121 50 -25 61 -37 43 -48 -8 -5 -30 -83 -47 -166
-26 -126 -32 -250 -12 -251 7 0 5 -3 -4 -7 -9 -4 -105 -6 -213 -4 l-195 3 0
48 c0 155 80 390 182 534 22 31 31 33 52 12z m96 11 c0 -2 -7 -7 -16 -10 -8
-3 -12 -2 -9 4 6 10 25 14 25 6z m1629 -152 c23 -48 53 -125 66 -173 23 -79
56 -269 50 -281 -2 -3 -96 -4 -209 -2 l-206 3 0 44 c0 25 -4 45 -9 45 -4 0 -6
11 -3 25 5 30 -25 203 -45 260 -20 55 -24 77 -12 70 5 -4 19 -3 30 0 17 6 19
9 8 17 -11 8 -10 9 3 4 18 -5 127 51 164 85 11 10 23 17 26 14 2 -3 13 4 24
16 l19 21 26 -31 c14 -18 45 -70 68 -117z m-1179 -104 c52 -10 121 -22 153
-25 l57 -6 2 -150 c0 -82 1 -154 2 -159 1 -7 -84 -12 -257 -13 l-257 -2 0 61
c0 86 42 314 66 355 2 4 34 -4 71 -18 38 -13 111 -33 163 -43z m759 -48 c20
-78 47 -290 37 -299 -2 -2 -116 -4 -252 -4 l-249 0 0 163 c0 133 3 162 14 160
24 -5 215 20 236 31 11 6 24 10 30 8 16 -4 135 30 141 41 10 16 20 -8 43 -100z
m-1592 -224 c-3 -8 -6 -5 -6 6 -1 11 2 17 5 13 3 -3 4 -12 1 -19z m458 -235
c7 -72 41 -231 58 -273 30 -74 32 -97 8 -105 -12 -3 -18 -11 -15 -17 4 -7 2
-8 -4 -4 -16 10 -74 -22 -66 -36 4 -7 3 -8 -4 -4 -13 8 -61 -15 -110 -52 l-33
-25 -24 29 c-14 16 -24 33 -25 37 0 5 -5 5 -12 1 -7 -4 -8 -3 -4 4 8 14 -33
74 -45 66 -5 -3 -6 3 -2 12 5 13 3 15 -7 9 -9 -5 -11 -4 -6 3 4 6 -5 36 -19
67 -14 31 -25 57 -25 59 0 2 -8 21 -17 42 -9 22 -18 46 -19 54 -2 8 -8 44 -14
80 -6 36 -15 77 -20 92 l-8 28 196 2 c109 2 200 2 203 1 4 -2 10 -33 14 -70z
m586 64 c-1 -4 -1 -76 -1 -161 l0 -153 -77 -7 c-104 -9 -144 -17 -138 -26 3
-5 -3 -6 -12 -4 -15 4 -58 -5 -143 -31 -58 -17 -53 -21 -82 72 -16 49 -35 135
-43 193 -9 57 -18 107 -21 112 -3 4 109 9 248 10 299 4 270 4 269 -5z m581 8
c7 -7 -17 -168 -37 -250 -27 -110 -45 -147 -64 -139 -9 4 -24 7 -33 8 -10 0
-18 3 -18 7 0 10 -166 40 -260 48 l-85 6 -5 157 -5 157 100 4 c193 6 402 7
407 2z m484 -69 c-12 -134 -90 -332 -175 -448 -20 -27 -40 -48 -46 -48 -6 0
-26 11 -45 25 -36 27 -56 33 -44 13 4 -7 3 -8 -5 -4 -6 4 -9 11 -6 16 3 4 -36
29 -86 55 -65 34 -87 50 -80 58 13 16 62 193 66 237 2 19 6 43 10 53 4 9 5 29
2 44 -3 15 -1 37 4 50 8 23 9 23 210 23 l202 0 -7 -74z m-826 -347 c52 -6 124
-20 158 -31 35 -11 71 -17 80 -14 14 5 13 3 -2 -8 -11 -9 -15 -20 -10 -28 4
-7 3 -10 -1 -5 -11 9 -57 -72 -48 -86 3 -6 1 -7 -6 -3 -6 4 -14 0 -18 -11 -3
-10 -20 -37 -36 -60 -17 -24 -26 -46 -22 -54 5 -8 4 -10 -4 -5 -6 4 -18 2 -26
-4 -18 -15 -20 -34 -2 -24 8 5 8 3 -2 -9 -7 -9 -17 -15 -21 -12 -4 3 -23 -12
-42 -33 -46 -50 -138 -132 -149 -132 -9 0 -13 523 -4 532 5 5 19 4 155 -13z
m-240 -254 c0 -229 -2 -265 -15 -265 -8 0 -61 46 -118 102 -56 56 -109 101
-117 99 -12 -1 -13 0 -1 8 10 7 11 12 3 22 -26 32 -58 76 -71 99 -8 14 -27 46
-42 72 -16 26 -24 50 -19 53 39 24 258 72 338 74 l42 1 0 -265z m685 110 c90
-48 113 -69 96 -89 -7 -8 -9 -21 -5 -27 4 -8 3 -9 -4 -5 -6 4 -37 -14 -69 -39
-32 -26 -65 -52 -73 -59 -9 -7 -24 -15 -34 -19 -12 -5 -16 -13 -11 -25 5 -13
3 -14 -6 -5 -9 9 -27 4 -78 -23 -68 -35 -270 -99 -280 -88 -3 3 7 17 22 30 16
14 25 29 21 36 -4 6 -3 8 3 5 15 -9 106 91 99 108 -3 9 0 12 9 9 15 -6 72 73
126 176 19 36 38 68 43 71 10 8 46 -6 141 -56z m-1135 29 c0 -9 5 -12 12 -8 6
4 8 3 4 -4 -15 -25 193 -320 216 -305 6 3 8 1 5 -4 -4 -6 9 -25 28 -42 19 -17
35 -33 35 -37 0 -21 -196 42 -297 96 -100 54 -243 163 -243 186 0 15 32 36
140 95 86 47 100 50 100 23z m942 -36 c-7 -7 -12 -8 -12 -2 0 14 12 26 19 19
2 -3 -1 -11 -7 -17z m-764 -213 c-3 -3 -9 2 -12 12 -6 14 -5 15 5 6 7 -7 10
-15 7 -18z m612 21 c0 -2 -8 -10 -17 -17 -16 -13 -17 -12 -4 4 13 16 21 21 21
13z"/>
<path d="M8227 7604 c-4 -4 -7 -34 -7 -66 0 -52 2 -58 20 -58 19 0 21 5 18 62
-3 57 -14 79 -31 62z"/>
</g>
</svg>
