<?xml version="1.0" standalone="no"?>
<!DOCTYPE svg PUBLIC "-//W3C//DTD SVG 20010904//EN"
 "http://www.w3.org/TR/2001/REC-SVG-20010904/DTD/svg10.dtd">
<svg version="1.0" xmlns="http://www.w3.org/2000/svg"
 width="4500.000000pt" height="4500.000000pt" viewBox="0 0 4500.000000 4500.000000"
 preserveAspectRatio="xMidYMid meet">

<g transform="translate(0.000000,4500.000000) scale(0.100000,-0.100000)"
fill="#D97706" stroke="none">
<path d="M17275 42194 c-186 -19 -256 -28 -360 -49 -536 -107 -1014 -363
-1400 -750 -429 -429 -686 -943 -782 -1565 -27 -178 -25 -576 5 -769 93 -592
358 -1117 777 -1536 680 -680 1669 -953 2600 -719 814 204 1498 783 1837 1554
117 264 185 519 218 815 13 116 13 454 0 570 -70 622 -329 1175 -755 1614
-154 158 -275 260 -450 376 -359 240 -742 385 -1160 440 -116 16 -448 27 -530
19z m314 -355 c187 -65 387 -281 535 -578 63 -126 169 -398 163 -415 -6 -14
-240 -49 -452 -67 -168 -14 -613 -14 -780 0 -167 14 -438 51 -448 60 -10 9 54
189 117 330 201 452 489 719 751 695 33 -3 84 -14 114 -25z m-978 -195 c-113
-170 -222 -402 -301 -638 l-32 -98 -37 6 c-80 13 -503 151 -541 177 -12 8 2
26 75 96 174 166 349 292 551 400 98 52 335 155 341 149 2 -1 -24 -43 -56 -92z
m1725 50 c208 -84 431 -213 599 -349 98 -78 265 -233 265 -245 0 -22 -543
-199 -575 -186 -7 2 -16 17 -19 33 -4 15 -30 89 -58 163 -80 215 -173 397
-302 593 -10 15 -14 27 -9 27 5 0 49 -16 99 -36z m-2532 -993 c64 -22 176 -57
249 -77 72 -20 133 -38 135 -39 1 -1 -9 -63 -22 -138 -38 -204 -65 -420 -78
-629 l-12 -188 -513 0 -513 0 0 31 c0 53 30 238 56 349 56 239 184 544 313
742 l50 77 109 -44 c60 -24 162 -62 226 -84z m3679 36 c196 -317 320 -676 355
-1024 l8 -83 -512 0 c-458 0 -513 2 -518 16 -3 9 -6 48 -6 88 0 155 -46 547
-90 759 -13 64 -15 90 -6 93 6 2 81 23 166 48 161 46 374 120 463 161 29 13
61 23 72 22 12 -1 36 -29 68 -80z m-2770 -252 c270 -38 430 -49 737 -48 310 0
469 10 743 49 98 14 180 24 183 22 2 -3 13 -48 24 -102 37 -182 80 -558 80
-708 l0 -68 -1035 0 -1035 0 0 33 c0 70 21 320 40 467 29 230 59 380 77 380 8
0 92 -11 186 -25z m-629 -1327 c12 -229 53 -555 101 -793 l6 -30 -108 -29
c-146 -39 -382 -118 -510 -171 l-104 -43 -50 76 c-71 110 -202 379 -244 501
-61 180 -105 375 -121 549 l-7 72 515 0 515 0 7 -132z m2396 73 c0 -80 -17
-292 -36 -436 -16 -126 -60 -374 -67 -381 -2 -3 -83 7 -178 20 -291 41 -426
50 -759 50 -327 -1 -507 -13 -774 -54 -71 -11 -134 -20 -141 -20 -31 0 -115
621 -115 848 l0 32 1035 0 1035 0 0 -59z m1358 -18 c-28 -284 -115 -577 -249
-839 -61 -120 -156 -274 -169 -274 -4 0 -57 20 -117 44 -124 50 -344 123 -483
161 -52 15 -100 28 -106 30 -9 2 -7 28 6 92 45 218 90 604 90 768 0 45 3 85 7
88 3 4 236 7 518 7 l511 0 -8 -77z m-1978 -1073 c159 -14 430 -52 430 -59 0
-15 -59 -180 -94 -264 -148 -356 -342 -604 -555 -710 -84 -42 -85 -42 -196
-42 l-112 0 -89 44 c-187 93 -382 335 -521 646 -43 95 -107 262 -118 306 l-6
26 158 21 c152 21 341 38 488 46 105 5 496 -4 615 -14z m-1444 -500 c52 -122
162 -322 222 -404 l36 -49 -29 7 c-49 12 -213 84 -315 138 -115 61 -293 177
-386 253 -96 79 -254 225 -254 235 0 18 340 135 530 183 l55 13 46 -130 c25
-72 68 -183 95 -246z m2335 340 c206 -58 449 -145 449 -160 0 -27 -295 -276
-446 -376 -140 -92 -503 -268 -520 -251 -2 2 21 41 52 88 110 168 213 383 289
604 20 61 39 113 42 118 7 11 23 9 134 -23z"/>
<path d="M23640 42069 c-151 -30 -271 -154 -300 -309 -7 -37 -9 -818 -8 -2345
l3 -2290 21 -52 c44 -107 120 -184 222 -225 l57 -23 1115 0 1115 0 57 23 c63
25 148 96 183 151 12 20 29 59 39 86 15 47 16 231 14 2380 l-3 2330 -33 67
c-40 82 -119 157 -200 190 l-57 23 -1090 2 c-600 0 -1110 -3 -1135 -8z m1688
-251 l3 -48 -580 0 -581 0 0 50 0 50 578 -2 577 -3 3 -47z m-255 -315 l947 -6
0 -1852 0 -1852 -947 -6 c-520 -4 -1094 -7 -1275 -7 l-328 0 0 1865 0 1865
328 0 c181 0 755 -3 1275 -7z m-211 -3929 c61 -20 127 -79 163 -145 40 -74 46
-180 16 -260 -44 -116 -152 -191 -283 -197 -65 -4 -85 0 -131 21 -74 34 -131
88 -164 155 -55 113 -29 265 61 355 89 90 210 115 338 71z"/>
<path d="M24645 37497 c-27 -13 -60 -35 -72 -48 -60 -66 -80 -185 -44 -264 36
-81 137 -145 227 -145 91 0 199 83 223 173 30 105 -13 216 -103 271 -68 42
-159 47 -231 13z"/>
<path d="M32150 41260 c0 -397 1 -427 19 -453 26 -40 55 -58 109 -66 l47 -6 3
-1193 2 -1192 170 0 170 0 0 1195 0 1195 35 0 c47 0 88 22 117 62 l23 33 3
425 3 425 -351 0 -350 0 0 -425z"/>
<path d="M39010 41235 l0 -305 65 0 65 0 0 305 0 305 -65 0 -65 0 0 -305z"/>
<path d="M39240 41235 l0 -305 70 0 70 0 0 305 0 305 -70 0 -70 0 0 -305z"/>
<path d="M7027 41403 c-4 -3 -7 -42 -7 -85 l0 -78 -1737 0 c-1147 0 -1760 -4
-1802 -10 -121 -20 -214 -86 -272 -192 l-34 -63 0 -1370 0 -1370 27 -57 c34
-73 98 -137 174 -174 l59 -29 3885 0 3885 0 60 32 c74 38 138 105 173 181 l27
57 0 1355 0 1355 -29 63 c-37 80 -122 161 -203 194 l-58 23 -1797 3 -1797 2
-3 83 -3 82 -271 3 c-149 1 -273 -1 -277 -5z m-2803 -684 l26 -20 0 -162 c0
-217 10 -207 -199 -207 -211 0 -201 -10 -201 206 l0 163 26 20 c24 19 40 21
174 21 134 0 150 -2 174 -21z m650 0 l26 -20 0 -162 c0 -217 10 -207 -199
-207 -211 0 -201 -10 -201 206 l0 163 26 20 c24 19 40 21 174 21 134 0 150 -2
174 -21z m650 0 l26 -20 0 -162 c0 -217 10 -207 -199 -207 -211 0 -201 -10
-201 206 l0 163 26 20 c24 19 40 21 174 21 134 0 150 -2 174 -21z m650 0 l26
-20 0 -162 c0 -217 10 -207 -200 -207 -211 0 -200 -12 -200 205 l0 164 26 20
c24 19 40 21 174 21 134 0 150 -2 174 -21z m650 0 l26 -20 0 -164 0 -164 -26
-20 c-24 -19 -40 -21 -178 -21 -207 0 -196 -11 -196 205 l0 164 26 20 c24 19
40 21 174 21 134 0 150 -2 174 -21z m650 0 l26 -20 0 -164 0 -164 -26 -20
c-24 -19 -40 -21 -178 -21 -207 0 -196 -11 -196 205 l0 164 26 20 c24 19 40
21 174 21 134 0 150 -2 174 -21z m650 0 l26 -20 0 -164 0 -164 -26 -20 c-24
-19 -40 -21 -178 -21 -163 1 -177 5 -196 54 -5 15 -10 83 -10 151 0 68 5 136
10 151 19 49 33 53 196 54 138 0 154 -2 178 -21z m650 0 l26 -20 0 -164 0
-164 -26 -20 c-24 -19 -40 -21 -176 -21 -82 0 -158 4 -168 10 -10 5 -23 24
-29 41 -14 40 -14 269 -1 305 19 49 33 53 196 54 138 0 154 -2 178 -21z m650
0 l26 -20 0 -164 0 -164 -26 -20 c-24 -19 -40 -21 -175 -21 -81 0 -155 3 -164
6 -34 14 -45 58 -45 193 0 71 5 142 10 157 19 49 33 53 196 54 138 0 154 -2
178 -21z m651 -4 c24 -24 25 -28 25 -184 l0 -160 -26 -20 c-24 -19 -40 -21
-175 -21 -81 0 -155 3 -164 6 -35 14 -45 58 -45 199 0 205 0 204 208 205 149
0 154 -1 177 -25z m650 0 c24 -24 25 -28 25 -184 l0 -160 -26 -20 c-24 -19
-40 -21 -175 -21 -81 0 -155 3 -164 6 -35 14 -45 58 -45 199 0 205 0 204 208
205 149 0 154 -1 177 -25z m-6810 -621 c35 -14 45 -58 45 -199 0 -205 0 -204
-208 -205 -149 0 -154 1 -177 25 -24 24 -25 28 -25 184 l0 160 26 20 c24 19
40 21 175 21 81 0 155 -3 164 -6z m650 0 c35 -14 45 -58 45 -199 0 -204 0
-204 -206 -205 -138 0 -154 2 -178 21 l-26 20 0 164 0 164 26 20 c24 19 40 21
175 21 81 0 155 -3 164 -6z m657 -8 c30 -22 38 -64 38 -191 0 -68 -5 -136 -10
-151 -19 -49 -33 -53 -196 -54 -138 0 -154 2 -178 21 l-26 20 0 164 0 164 26
20 c24 19 40 21 178 21 108 -1 156 -4 168 -14z m656 -6 c21 -20 22 -29 22
-185 l0 -164 -26 -20 c-24 -19 -40 -21 -174 -21 -134 0 -150 2 -174 21 l-26
20 0 164 0 164 26 20 c24 19 40 21 178 21 139 0 154 -2 174 -20z m650 0 c21
-20 22 -29 22 -185 l0 -164 -26 -20 c-24 -19 -40 -21 -174 -21 -134 0 -150 2
-174 21 l-26 20 0 164 0 164 26 20 c24 19 40 21 178 21 139 0 154 -2 174 -20z
m650 0 c21 -20 22 -29 22 -185 l0 -164 -26 -20 c-24 -19 -40 -21 -174 -21
-134 0 -150 2 -174 21 l-26 20 0 164 0 164 26 20 c24 19 40 21 178 21 139 0
154 -2 174 -20z m649 -2 c22 -21 23 -27 23 -184 l0 -163 -26 -20 c-24 -19 -40
-21 -174 -21 -134 0 -150 2 -174 21 l-26 20 0 162 c0 217 -10 207 199 207 145
0 156 -1 178 -22z m650 0 c22 -21 23 -27 23 -184 l0 -163 -26 -20 c-24 -19
-40 -21 -174 -21 -134 0 -150 2 -174 21 l-26 20 0 162 c0 217 -10 207 199 207
145 0 156 -1 178 -22z m650 0 c22 -21 23 -27 23 -184 l0 -163 -26 -20 c-24
-19 -40 -21 -174 -21 -134 0 -150 2 -174 21 l-26 20 0 162 c0 217 -10 207 199
207 145 0 156 -1 178 -22z m647 1 l26 -20 0 -164 0 -164 -26 -20 c-24 -19 -40
-21 -174 -21 -134 0 -150 2 -174 21 l-26 20 0 162 c0 217 -9 207 195 207 139
0 155 -2 179 -21z m650 0 l26 -20 0 -164 0 -164 -26 -20 c-24 -19 -40 -21
-174 -21 -134 0 -150 2 -174 21 l-26 20 0 164 c0 216 -11 205 196 205 138 0
154 -2 178 -21z m651 -4 c24 -24 25 -28 25 -180 0 -152 -1 -156 -25 -180 -23
-24 -28 -25 -178 -25 -213 0 -211 -3 -205 230 4 188 -5 180 205 180 150 0 155
-1 178 -25z m-7144 -634 c23 -18 24 -25 27 -175 l3 -156 -30 -30 -29 -30 -152
0 c-147 0 -152 1 -175 25 -24 24 -25 28 -25 181 0 214 -10 204 201 204 139 0
159 -2 180 -19z m649 -1 c29 -29 32 -53 28 -205 -3 -136 -3 -137 -31 -161 -27
-23 -34 -24 -178 -24 -146 0 -151 1 -174 25 -24 24 -25 28 -25 181 0 214 -10
204 202 204 144 0 160 -2 178 -20z m650 0 c29 -29 32 -53 28 -205 -3 -136 -3
-137 -31 -161 -27 -23 -34 -24 -176 -24 -135 0 -151 2 -175 21 l-26 20 0 162
c0 218 -10 207 202 207 144 0 160 -2 178 -20z m650 0 c18 -18 20 -33 20 -184
l0 -165 -26 -20 c-24 -19 -40 -21 -174 -21 -134 0 -150 2 -174 21 l-26 20 0
162 c0 218 -10 207 202 207 145 0 160 -2 178 -20z m650 0 c18 -18 20 -33 20
-184 l0 -165 -26 -20 c-24 -19 -40 -21 -174 -21 -134 0 -150 2 -174 21 l-26
20 0 162 c0 218 -10 207 202 207 145 0 160 -2 178 -20z m650 0 c18 -18 20 -33
20 -184 l0 -165 -26 -20 c-24 -19 -40 -21 -174 -21 -134 0 -150 2 -174 21
l-26 20 0 164 c0 217 -12 205 202 205 145 0 160 -2 178 -20z m650 0 c18 -18
20 -33 20 -184 l0 -165 -26 -20 c-24 -19 -40 -21 -174 -21 -134 0 -150 2 -174
21 l-26 20 0 164 c0 217 -12 205 202 205 145 0 160 -2 178 -20z m650 0 c18
-18 20 -33 20 -184 l0 -165 -26 -20 c-24 -19 -40 -21 -174 -21 -134 0 -150 2
-174 21 l-26 20 0 165 c0 217 -13 204 200 204 147 0 162 -2 180 -20z m650 0
c18 -18 20 -33 20 -184 l0 -165 -26 -20 c-24 -19 -40 -21 -174 -21 -134 0
-150 2 -174 21 l-26 20 0 165 c0 217 -13 204 200 204 147 0 162 -2 180 -20z
m648 0 c21 -20 22 -29 22 -185 l0 -164 -26 -20 c-24 -19 -40 -21 -174 -21
-134 0 -150 2 -174 21 l-26 20 0 165 c0 217 -12 204 198 204 145 0 160 -2 180
-20z m650 0 c21 -20 22 -29 22 -185 l0 -164 -26 -20 c-24 -19 -40 -21 -174
-21 -134 0 -150 2 -174 21 l-26 20 0 165 c0 217 -12 204 198 204 145 0 160 -2
180 -20z m649 -2 c22 -21 23 -27 23 -180 0 -155 -1 -159 -25 -183 -23 -24 -28
-25 -169 -25 -85 0 -155 5 -169 11 -40 18 -47 50 -47 205 0 141 1 146 25 169
24 24 28 25 181 25 148 0 159 -1 181 -22z m-6847 -638 c18 -18 20 -33 20 -183
0 -214 12 -202 -200 -202 -212 0 -200 -12 -200 202 0 216 -13 203 200 203 147
0 162 -2 180 -20z m650 0 c18 -18 20 -33 20 -183 0 -214 12 -202 -200 -202
-212 0 -200 -12 -200 202 0 216 -13 203 200 203 147 0 162 -2 180 -20z m650 0
c18 -18 20 -33 20 -183 0 -214 12 -202 -200 -202 -212 0 -200 -12 -200 202 0
216 -13 203 200 203 147 0 162 -2 180 -20z m1977 -2 c22 -21 23 -27 23 -179 0
-139 -2 -159 -19 -180 l-19 -24 -820 -3 c-817 -2 -819 -2 -845 19 l-27 20 0
165 c0 151 2 166 20 184 20 20 33 20 842 20 l822 0 23 -22z m623 2 c18 -18 20
-33 20 -179 0 -216 10 -205 -193 -209 -152 -3 -155 -3 -183 21 -29 25 -29 26
-32 153 -7 236 -8 234 208 234 147 0 162 -2 180 -20z m647 -2 c22 -21 23 -27
23 -179 0 -214 10 -203 -193 -207 -152 -3 -155 -3 -183 21 l-29 25 0 162 c0
211 -11 200 203 200 146 0 157 -1 179 -22z m650 0 c22 -21 23 -27 23 -179 0
-214 10 -203 -193 -207 -152 -3 -155 -3 -183 21 l-29 25 0 162 c0 211 -11 200
203 200 146 0 157 -1 179 -22z m650 0 c22 -21 23 -27 23 -179 0 -214 10 -203
-193 -207 -152 -3 -155 -3 -183 21 l-29 25 0 162 c0 211 -11 200 203 200 146
0 157 -1 179 -22z m650 0 c22 -21 23 -27 23 -179 0 -214 10 -203 -194 -207
l-156 -3 -31 30 -30 31 3 156 c4 204 -7 194 206 194 146 0 157 -1 179 -22z"/>
<path d="M30842 40957 l-291 -193 205 -307 c142 -214 214 -314 237 -327 43
-27 112 -26 156 1 27 16 36 18 43 7 4 -7 45 -78 90 -157 246 -436 455 -981
569 -1483 l34 -148 173 0 c147 0 172 2 172 15 0 8 -18 92 -40 186 -143 617
-358 1167 -656 1681 l-62 107 39 40 c36 35 39 43 39 93 0 52 -5 62 -93 199
-120 185 -316 479 -320 479 -2 0 -135 -87 -295 -193z"/>
<path d="M33649 40848 c-111 -166 -205 -317 -209 -335 -12 -51 5 -104 44 -140
l34 -32 -85 -148 c-187 -326 -337 -665 -468 -1058 -76 -226 -183 -621 -200
-739 l-7 -46 172 2 172 3 58 230 c101 399 229 757 395 1102 67 140 202 389
243 451 7 11 16 9 43 -7 44 -27 113 -28 157 -1 23 14 91 108 232 321 110 166
200 305 200 310 0 6 -479 329 -567 382 -8 5 -78 -90 -214 -295z"/>
<path d="M39010 40720 l0 -40 65 0 65 0 0 40 0 40 -65 0 -65 0 0 -40z"/>
<path d="M39240 40720 l0 -40 70 0 70 0 0 40 0 40 -70 0 -70 0 0 -40z"/>
<path d="M29673 40003 c-3 -10 -12 -34 -20 -53 -8 -19 -57 -147 -109 -285 -52
-137 -99 -261 -105 -274 -5 -13 -8 -24 -7 -26 2 -1 179 -68 393 -150 428 -163
460 -171 521 -128 17 13 39 38 48 58 9 19 18 35 20 35 2 0 41 -21 86 -46 329
-182 636 -465 841 -776 57 -87 57 -87 75 -66 39 43 91 58 212 58 61 0 112 3
112 6 0 11 -70 125 -138 224 -246 360 -585 665 -968 871 l-93 50 6 63 c6 71
-9 112 -54 143 -23 16 -790 313 -808 313 -3 0 -8 -8 -12 -17z"/>
<path d="M34900 39869 c-217 -83 -403 -158 -414 -167 -36 -33 -49 -72 -43
-139 l5 -63 -92 -49 c-385 -207 -740 -528 -974 -879 -64 -95 -132 -206 -132
-215 0 -3 58 -7 129 -9 127 -3 130 -4 174 -35 l45 -31 55 82 c169 254 421 506
669 668 80 53 242 148 252 148 3 0 13 -16 22 -35 9 -20 31 -45 48 -58 61 -43
93 -35 521 128 215 82 391 149 392 150 2 1 -47 132 -108 291 -61 159 -116 304
-123 323 -7 19 -17 36 -22 38 -5 1 -187 -66 -404 -148z"/>
<path d="M38114 39143 c2 -10 7 -34 11 -53 4 -19 9 -43 11 -52 5 -17 64 -18
1059 -18 995 0 1054 1 1059 18 2 9 7 33 11 52 4 19 9 43 11 53 5 16 -51 17
-1081 17 -1030 0 -1086 -1 -1081 -17z"/>
<path d="M38173 38846 c3 -7 9 -34 12 -60 l7 -46 449 0 449 0 0 60 0 60 -461
0 c-387 0 -460 -2 -456 -14z"/>
<path d="M39300 38800 l0 -60 447 2 447 3 12 58 11 57 -458 0 -459 0 0 -60z"/>
<path d="M38233 38556 c3 -7 9 -34 12 -60 l7 -46 419 0 419 0 0 60 0 60 -431
0 c-361 0 -430 -2 -426 -14z"/>
<path d="M39300 38510 l0 -60 417 2 416 3 13 55 c7 30 13 56 14 58 0 1 -193 2
-430 2 l-430 0 0 -60z"/>
<path d="M38293 38266 c3 -7 9 -34 12 -60 l7 -46 883 0 883 0 7 46 c3 26 9 53
12 60 4 12 -137 14 -902 14 -765 0 -906 -2 -902 -14z"/>
<path d="M38353 37968 c3 -13 9 -40 12 -60 l7 -38 359 0 359 0 0 60 0 60 -371
0 -371 0 5 -22z"/>
<path d="M39300 37930 l0 -60 359 0 359 0 7 46 c3 26 9 53 12 60 4 12 -56 14
-366 14 l-371 0 0 -60z"/>
<path d="M38414 37673 c15 -80 -21 -73 347 -73 l329 0 0 55 0 55 -341 0 -341
0 6 -37z"/>
<path d="M39300 37655 l0 -55 329 0 329 0 11 44 c6 25 11 50 11 55 0 8 -108
11 -340 11 l-340 0 0 -55z"/>
<path d="M41017 35380 c-51 -16 -57 -27 -57 -106 0 -70 1 -74 25 -80 14 -3 25
-10 25 -15 0 -5 -11 -11 -25 -15 l-25 -6 0 -1114 0 -1114 -22 5 c-54 12 -696
75 -768 75 -5 0 -11 -14 -15 -30 -7 -34 -25 -31 -25 4 0 20 -6 24 -46 30 -26
3 -64 6 -85 6 -36 0 -37 -1 -44 -41 -8 -45 -25 -37 -25 12 0 31 -26 39 -116
39 -50 0 -54 -2 -54 -24 0 -33 -10 -57 -21 -50 -5 3 -9 20 -9 38 l0 33 -61 7
c-105 11 -109 10 -109 -23 0 -16 -3 -36 -6 -45 -10 -27 -24 -7 -24 35 l0 39
-85 0 -85 0 -1 -32 c0 -18 -4 -42 -8 -52 -7 -18 -8 -18 -14 5 -4 13 -7 36 -7
51 0 25 -4 27 -53 33 -70 9 -111 3 -114 -15 -1 -8 -5 -33 -9 -55 -5 -33 -8
-37 -14 -20 -5 11 -9 37 -9 58 l-1 37 -85 0 -85 0 0 -42 c0 -53 -14 -81 -23
-46 -4 12 -7 38 -7 56 l0 33 -82 -3 -83 -3 -3 -35 c-1 -19 -5 -42 -8 -50 -9
-24 -24 9 -24 53 l0 37 -79 0 c-85 0 -91 -4 -91 -58 0 -44 -16 -59 -24 -22 -3
18 -6 44 -6 58 0 25 0 25 -76 20 -81 -5 -94 -13 -94 -60 0 -15 -4 -29 -9 -32
-10 -6 -21 26 -21 62 0 21 -4 22 -79 22 -86 0 -91 -4 -91 -61 0 -46 -18 -34
-26 17 l-7 47 -76 -7 c-80 -8 -91 -14 -91 -58 0 -43 -17 -33 -25 13 l-7 41
-75 -4 c-79 -5 -93 -14 -93 -55 0 -36 -17 -27 -24 12 -7 35 -7 35 -59 34 -89
-2 -112 -10 -115 -42 -4 -34 -22 -36 -22 -3 0 14 -4 28 -10 31 -12 8 -455 -30
-660 -56 -296 -37 -524 -82 -645 -128 -27 -10 -79 -24 -114 -31 -36 -6 -83
-21 -105 -32 -65 -33 -141 -112 -172 -181 -28 -61 -29 -66 -34 -277 l-5 -215
-105 -3 c-79 -2 -109 -7 -122 -19 -17 -15 -18 -44 -18 -395 0 -456 -13 -418
144 -418 l104 0 4 -147 c3 -139 5 -152 33 -208 37 -76 109 -149 183 -183 l57
-27 2770 0 2770 0 66 32 c79 39 140 102 177 181 25 52 27 69 30 205 l3 147
104 0 c86 0 107 3 126 19 l24 19 3 369 c3 455 15 421 -146 425 l-107 3 -5 220
c-5 216 -5 221 -33 277 -55 112 -156 187 -286 212 -36 8 -100 25 -141 39 -41
14 -103 31 -137 38 l-63 13 0 1137 0 1137 -25 6 c-14 4 -25 11 -25 16 0 5 11
12 25 16 24 6 25 10 25 80 0 68 -2 75 -25 90 -30 19 -145 28 -188 14z m-3353
-3567 c-66 -91 -64 -218 4 -296 20 -23 2 -47 -21 -28 -50 41 -77 197 -47 272
21 54 60 103 73 90 8 -8 5 -19 -9 -38z m-853 -79 c-51 -65 -5 -164 76 -164 48
0 81 22 100 67 13 32 12 38 -7 77 -20 43 -27 86 -12 86 11 0 46 -39 61 -67 18
-34 13 -104 -9 -141 -26 -43 -76 -72 -123 -72 -141 0 -207 157 -109 257 l37
38 3 -28 c2 -16 -5 -37 -17 -53z m109 -4 c0 -79 0 -80 -25 -80 -25 0 -25 1
-25 80 0 79 0 80 25 80 25 0 25 -1 25 -80z m1638 50 c92 -56 96 -195 7 -250
-39 -24 -113 -27 -156 -5 -94 49 -92 211 4 259 44 22 105 20 145 -4z m580 0
c66 -41 90 -124 56 -196 -22 -46 -70 -74 -128 -74 -96 0 -152 61 -144 155 3
35 12 63 24 76 53 60 132 76 192 39z m570 6 c50 -26 75 -62 80 -117 9 -94 -49
-159 -143 -159 -94 0 -152 65 -143 159 3 30 13 60 24 73 49 55 125 74 182 44z
m580 0 c52 -27 75 -62 80 -120 8 -95 -48 -156 -144 -156 -85 0 -144 60 -144
147 0 102 118 176 208 129z m588 -2 c97 -46 100 -209 5 -259 -43 -22 -117 -19
-156 5 -62 38 -84 134 -45 198 41 66 124 90 196 56z m-3136 -41 c-24 -31 -27
-101 -5 -144 9 -16 13 -34 10 -39 -22 -36 -59 50 -53 124 5 66 32 113 54 96
12 -10 11 -16 -6 -37z m78 -78 c0 -31 -4 -45 -13 -45 -18 0 -29 54 -15 80 16
30 27 17 28 -35z"/>
<path d="M3793 35311 c-97 -33 -156 -88 -200 -186 -17 -38 -18 -145 -21 -2162
l-2 -2123 -25 0 c-23 0 -25 4 -25 45 l0 45 -180 0 -180 0 0 -45 0 -45 -210 0
-210 0 0 -40 c0 -71 37 -149 100 -212 48 -47 70 -60 127 -78 l68 -20 3725 2
3725 3 56 26 c106 50 180 150 195 267 l7 52 -212 0 -211 0 0 45 0 45 -195 0
-195 0 0 -45 c0 -33 -4 -45 -15 -45 -13 0 -15 250 -17 2128 l-3 2127 -21 46
c-31 67 -87 124 -152 156 l-57 28 -2910 2 c-2780 2 -2912 2 -2962 -16z m3008
-127 c27 -24 34 -76 15 -111 -39 -76 -151 -61 -172 23 -9 34 18 91 48 104 31
13 86 5 109 -16z m2869 -2122 l0 -1849 -2197 -6 c-1209 -4 -2530 -7 -2935 -7
l-738 0 0 1855 0 1855 2935 0 2935 0 0 -1848z"/>
<path d="M27403 30095 c-29 -8 -72 -24 -95 -36 -58 -30 -140 -110 -172 -169
-59 -109 -56 153 -56 -3931 l0 -3746 -93 -11 c-358 -44 -615 -279 -857 -785
-86 -179 -184 -426 -345 -872 -169 -465 -256 -683 -311 -780 -236 -411 -666
-664 -1316 -775 -241 -41 -394 -52 -784 -57 -494 -7 -733 5 -1614 82 -963 84
-1340 87 -1713 15 -476 -92 -827 -304 -977 -592 -42 -80 -48 -103 -27 -111 6
-3 -63 -6 -155 -6 l-168 -1 0 -105 0 -105 -2177 0 c-2398 0 -2242 4 -2365 -62
-63 -33 -147 -117 -178 -177 -10 -20 -26 -63 -37 -96 -17 -57 -18 -135 -18
-1690 l0 -1630 23 -72 c42 -136 154 -248 290 -292 l62 -21 4759 0 c4739 0
4759 0 4824 20 159 49 279 191 306 360 7 43 11 594 11 1645 0 1735 2 1657 -61
1775 -60 113 -188 205 -318 230 -35 7 -797 10 -2247 10 l-2194 0 0 105 0 105
-131 0 -130 0 31 59 c119 222 381 402 725 496 250 68 436 89 790 89 290 -1
411 -8 1105 -69 520 -45 753 -62 1055 -76 301 -14 807 -6 1025 16 859 86 1393
353 1687 843 68 113 150 314 334 820 281 773 395 1023 577 1258 154 200 337
311 542 330 l70 7 2 -1189 3 -1189 32 -68 c38 -79 114 -163 181 -200 112 -61
-41 -57 2372 -57 2374 0 2257 -2 2358 49 57 29 133 102 169 163 70 116 65
-360 56 5189 l-8 5005 -38 76 c-59 121 -167 204 -296 228 -35 7 -806 10 -2255
9 -1864 0 -2209 -2 -2253 -14z m1010 -3582 c-89 -2 -237 -2 -330 0 -92 1 -19
3 162 3 182 0 257 -2 168 -3z m890 0 l-343 -3 0 -55 0 -55 343 -2 342 -3 3
-102 3 -103 -351 0 -350 0 0 165 0 165 348 -2 347 -3 -342 -2z m2121 -124 c24
-27 27 -38 23 -73 -10 -72 -75 -110 -141 -82 -75 31 -82 134 -12 177 43 28 93
19 130 -22z m-2844 -94 l0 -105 -345 0 -345 0 0 105 0 105 345 0 345 0 0 -105z
m1435 -2295 c87 -13 160 -53 200 -109 25 -36 30 -54 33 -116 3 -50 -1 -89 -12
-121 -9 -26 -87 -171 -173 -322 -184 -320 -231 -379 -327 -407 -98 -29 -185 1
-263 89 -40 46 -313 510 -360 612 -49 108 -33 235 39 300 37 35 105 64 166 73
82 12 614 12 697 1z m-290 -1371 l55 8 0 -1339 0 -1338 -110 0 -110 0 0 1338
0 1339 55 -8 c30 -4 80 -4 110 0z m-14474 -5152 c35 -26 39 -54 39 -242 l0
-187 -29 -29 -29 -29 -192 0 -192 0 -29 29 -29 29 0 195 0 194 26 27 27 26
196 0 c138 -1 201 -4 212 -13z m814 -12 c25 -24 25 -25 25 -219 0 -107 -3
-202 -6 -211 -15 -38 -56 -45 -248 -45 -181 0 -185 1 -213 24 l-28 24 -3 196
-3 196 30 30 29 30 197 0 c195 0 196 0 220 -25z m806 -4 l29 -29 0 -192 0
-192 -29 -29 -29 -29 -187 0 c-193 0 -234 7 -249 45 -3 9 -6 104 -6 211 0 262
-18 244 245 244 l197 0 29 -29z m803 3 l26 -27 0 -194 0 -195 -29 -29 -29 -29
-192 0 -192 0 -29 29 -29 29 0 187 c0 188 4 216 39 242 11 9 74 12 212 13
l196 0 27 -26z m788 15 c38 -21 48 -68 48 -237 0 -88 -5 -173 -11 -190 -20
-57 -38 -62 -244 -62 -109 0 -194 4 -206 10 -42 23 -49 59 -49 250 l0 182 29
29 29 29 192 0 c118 0 199 -4 212 -11z m822 -20 c26 -31 26 -31 26 -221 l0
-190 -29 -29 -29 -29 -187 0 c-188 0 -216 4 -242 39 -9 11 -12 74 -13 214 0
266 -19 247 249 247 l199 0 26 -31z m801 6 c25 -24 25 -25 25 -224 l0 -199
-31 -26 c-31 -26 -31 -26 -221 -26 l-190 0 -29 29 -29 29 0 190 c0 190 0 190
26 221 l26 31 199 0 c199 0 200 0 224 -25z m786 15 c41 -23 49 -60 49 -235 0
-176 -9 -223 -48 -244 -13 -7 -93 -11 -209 -11 -206 0 -219 3 -242 58 -9 20
-11 86 -9 212 l3 182 28 24 c28 24 32 24 218 24 111 0 198 -4 210 -10z m823
-21 c26 -31 26 -31 26 -221 l0 -190 -29 -29 -29 -29 -190 0 c-190 0 -190 0
-221 26 l-31 26 0 199 c0 268 -19 249 249 249 l199 0 26 -31z m801 6 c25 -24
25 -25 25 -224 l0 -199 -31 -26 c-31 -26 -31 -26 -221 -26 l-190 0 -29 29 -29
29 0 190 c0 190 0 190 26 221 l26 31 199 0 c199 0 200 0 224 -25z m802 1 l28
-24 3 -182 c3 -193 -2 -228 -42 -255 -31 -22 -387 -22 -421 1 -37 24 -45 65
-45 241 0 171 8 209 47 232 11 6 98 11 210 11 189 0 192 0 220 -24z m-8403
-792 l26 -27 0 -194 0 -195 -29 -29 -29 -29 -192 0 -192 0 -29 29 -29 29 0
190 c0 190 0 190 26 221 l26 31 198 0 197 0 27 -26z m788 15 c38 -21 48 -68
48 -239 0 -171 -10 -218 -48 -239 -13 -7 -93 -11 -209 -11 -206 0 -219 3 -242
58 -9 20 -11 86 -9 212 l3 182 28 24 c28 24 32 24 218 24 117 0 198 -4 211
-11z m819 -18 l29 -29 0 -192 0 -192 -29 -29 -29 -29 -187 0 c-188 0 -216 4
-242 39 -9 11 -12 74 -13 214 0 266 -19 247 245 247 l197 0 29 -29z m803 4
l26 -24 0 -200 0 -199 -31 -26 c-31 -26 -31 -26 -221 -26 l-190 0 -29 29 -29
29 0 192 0 192 29 29 29 29 195 0 c192 0 194 0 221 -25z m803 1 l28 -24 3
-182 c2 -126 0 -192 -9 -212 -23 -55 -36 -58 -242 -58 -110 0 -196 4 -208 10
-41 23 -49 59 -49 240 0 179 7 216 47 239 11 6 98 11 210 11 189 0 192 0 220
-24z m804 -5 l29 -29 0 -192 0 -192 -29 -29 -29 -29 -190 0 c-190 0 -190 0
-221 26 l-31 26 0 199 0 200 26 24 c27 25 29 25 221 25 l195 0 29 -29z m804 4
c25 -24 25 -25 25 -222 -1 -140 -4 -203 -13 -214 -26 -35 -54 -39 -242 -39
l-187 0 -29 29 -29 29 0 192 0 192 29 29 29 29 197 0 c195 0 196 0 220 -25z
m802 1 l28 -24 3 -182 c3 -193 -2 -228 -42 -255 -31 -22 -387 -22 -421 1 -37
24 -45 65 -45 236 0 167 9 215 47 237 11 6 92 11 210 11 189 0 192 0 220 -24z
m807 -7 c26 -31 26 -31 26 -221 l0 -190 -29 -29 -29 -29 -192 0 -192 0 -29 29
-29 29 0 195 0 194 26 27 27 26 197 0 198 0 26 -31z m801 6 c25 -24 25 -25 25
-225 l0 -201 -26 -24 c-27 -25 -29 -25 -221 -25 l-195 0 -29 29 -29 29 0 192
0 192 29 29 29 29 197 0 c195 0 196 0 220 -25z m806 -5 l30 -30 -3 -196 -3
-196 -28 -24 c-28 -24 -32 -24 -221 -24 -191 0 -193 0 -220 25 l-26 24 0 201
c0 269 -19 250 245 250 l197 0 29 -30z m800 1 l29 -29 0 -192 0 -192 -29 -29
-29 -29 -187 0 c-188 0 -216 4 -242 39 -9 11 -12 74 -13 214 0 266 -19 247
245 247 l197 0 29 -29z m-8837 -787 l26 -27 0 -197 0 -198 -31 -26 c-31 -26
-31 -26 -221 -26 l-190 0 -29 29 -29 29 0 190 c0 190 0 190 26 221 l26 31 198
0 197 0 27 -26z m788 15 c38 -21 48 -68 48 -239 0 -171 -10 -218 -48 -239 -13
-7 -93 -11 -209 -11 -206 0 -219 3 -242 58 -9 20 -11 86 -9 212 l3 182 28 24
c28 24 32 24 218 24 117 0 198 -4 211 -11z m819 -18 l29 -29 0 -192 0 -192
-29 -29 -29 -29 -195 0 -194 0 -27 26 -26 27 0 199 c0 267 -19 248 245 248
l197 0 29 -29z m804 4 c25 -24 25 -25 25 -222 -1 -140 -4 -203 -13 -214 -26
-35 -54 -39 -242 -39 l-187 0 -29 29 -29 29 0 190 c0 190 0 190 26 221 l26 31
199 0 c199 0 200 0 224 -25z m802 1 l28 -24 3 -182 c2 -126 0 -192 -9 -212
-23 -55 -36 -58 -244 -58 -208 0 -221 3 -244 58 -9 20 -11 86 -9 212 l3 182
28 24 c28 24 32 24 222 24 190 0 194 0 222 -24z m807 -7 c26 -31 26 -31 26
-221 l0 -190 -29 -29 -29 -29 -187 0 c-188 0 -216 4 -242 39 -9 11 -12 74 -13
214 0 266 -19 247 249 247 l199 0 26 -31z m801 6 c25 -24 25 -25 25 -223 l0
-199 -26 -27 -27 -26 -194 0 -195 0 -29 29 -29 29 0 192 0 192 29 29 29 29
197 0 c195 0 196 0 220 -25z m802 1 l28 -24 0 -202 0 -202 -28 -24 c-28 -24
-32 -24 -218 -24 -117 0 -198 4 -211 11 -38 21 -48 68 -48 239 0 169 9 217 47
239 11 6 92 11 210 11 189 0 192 0 220 -24z m807 -7 c26 -31 26 -31 26 -221
l0 -190 -29 -29 -29 -29 -192 0 -192 0 -29 29 -29 29 0 195 0 194 26 27 27 26
197 0 198 0 26 -31z m801 6 c25 -24 25 -25 25 -225 l0 -201 -26 -24 c-27 -25
-29 -25 -221 -25 l-195 0 -29 29 -29 29 0 192 0 192 29 29 29 29 197 0 c195 0
196 0 220 -25z m806 -5 l30 -30 -3 -196 -3 -196 -28 -24 c-28 -24 -32 -24
-221 -24 -191 0 -193 0 -220 25 l-26 24 0 201 c0 269 -19 250 245 250 l197 0
29 -30z m800 1 l29 -29 0 -192 0 -192 -29 -29 -29 -29 -187 0 c-188 0 -216 4
-242 39 -9 11 -12 74 -13 214 0 266 -19 247 245 247 l197 0 29 -29z m-8467
-792 c26 -31 26 -31 26 -221 l0 -190 -29 -29 -29 -29 -192 0 -192 0 -29 29
-29 29 0 195 0 194 26 27 27 26 197 0 198 0 26 -31z m801 6 c25 -24 25 -25 25
-225 l0 -201 -26 -24 c-27 -25 -29 -25 -221 -25 l-195 0 -29 29 -29 29 0 192
0 192 29 29 29 29 197 0 c195 0 196 0 220 -25z m806 -4 l29 -29 0 -192 0 -192
-29 -29 -29 -29 -195 0 c-192 0 -194 0 -221 25 l-26 24 0 201 c0 269 -19 250
245 250 l197 0 29 -29z m2443 3 l26 -27 0 -196 c-1 -205 -3 -216 -47 -239 -16
-9 -282 -12 -1028 -12 l-1007 0 -29 29 -29 29 0 190 c0 190 0 190 26 221 l26
31 1018 0 1017 0 27 -26z m770 0 l26 -27 0 -197 0 -198 -31 -26 c-31 -26 -31
-26 -221 -26 l-190 0 -29 29 -29 29 0 192 0 192 29 29 29 29 195 0 194 0 27
-26z m787 16 c41 -23 49 -60 49 -235 0 -176 -9 -223 -48 -244 -27 -14 -386
-15 -413 -1 -41 23 -49 59 -49 240 0 179 7 216 47 239 24 14 388 14 414 1z
m820 -19 l29 -29 0 -192 0 -192 -29 -29 -29 -29 -187 0 c-188 0 -216 4 -242
39 -9 11 -12 74 -13 212 l0 196 26 27 27 26 194 0 195 0 29 -29z m804 4 c25
-24 25 -25 25 -223 l0 -199 -26 -27 -27 -26 -194 0 -195 0 -29 29 -29 29 0
192 0 192 29 29 29 29 197 0 c195 0 196 0 220 -25z m802 1 l28 -24 3 -182 c2
-126 0 -192 -9 -212 -23 -55 -36 -58 -242 -58 -110 0 -196 4 -208 10 -41 23
-49 59 -49 240 0 179 7 216 47 239 11 6 98 11 210 11 189 0 192 0 220 -24z"/>
<path d="M12742 26203 l3 -3598 6295 0 6295 0 3 3598 2 3597 -6300 0 -6300 0
2 -3597z"/>
<path d="M3976 27704 c-35 -11 -65 -31 -106 -72 -100 -101 -90 259 -90 -3203
l0 -3047 33 -63 c35 -68 97 -124 165 -150 31 -12 397 -14 2262 -17 1634 -2
2243 0 2292 8 111 19 192 87 233 193 14 38 15 337 13 3102 l-3 3060 -22 42
c-30 55 -84 107 -142 135 l-46 23 -2270 2 c-1999 1 -2276 0 -2319 -13z m2344
-95 c26 -47 -25 -100 -69 -72 -20 13 -26 60 -10 79 18 22 66 18 79 -7z m405
-224 l0 -30 -440 -3 c-399 -2 -441 -1 -452 14 -9 12 -9 22 -2 35 9 18 29 19
452 17 l442 -3 0 -30z m1805 -2745 l0 -2580 -2250 0 -2250 0 0 2580 0 2580
2250 0 2250 0 0 -2580z m-2114 -2730 c62 -31 130 -98 157 -158 17 -36 22 -66
22 -132 0 -73 -4 -93 -28 -142 -35 -71 -101 -130 -176 -159 -73 -27 -185 -23
-249 10 -216 111 -246 402 -57 547 89 68 231 82 331 34z"/>
<path d="M6227 21859 c-153 -37 -238 -208 -170 -344 21 -42 72 -94 113 -115
121 -62 277 -5 333 120 24 54 26 140 5 191 -46 108 -172 175 -281 148z"/>
<path d="M23688 22130 c-68 -36 -83 -70 -86 -198 -4 -129 3 -157 54 -202 41
-36 90 -50 174 -50 85 0 133 14 175 51 47 41 58 85 53 209 -3 92 -6 109 -27
139 -38 53 -89 71 -206 70 -79 0 -108 -4 -137 -19z"/>
<path d="M17910 21910 l0 -140 1130 0 1130 0 0 140 0 140 -1130 0 -1130 0 0
-140z"/>
<path d="M16482 21237 c51 -62 401 -489 716 -871 122 -149 222 -273 222 -277
0 -3 -98 -13 -217 -23 -409 -32 -729 -82 -821 -128 l-47 -23 -3 -127 -3 -128
2711 0 2711 0 -3 128 -3 127 -47 23 c-93 47 -407 95 -822 128 -119 10 -215 21
-214 26 2 4 100 126 218 270 555 677 734 894 748 911 14 16 -110 17 -2587 17
l-2602 0 43 -53z"/>
<path d="M39103 19180 c-123 -11 -237 -34 -363 -76 -434 -145 -774 -445 -972
-860 -48 -101 -52 -106 -77 -100 -14 3 -78 9 -142 12 -494 28 -949 -274 -1119
-742 l-22 -62 -86 -17 c-116 -22 -301 -84 -399 -133 -218 -110 -454 -319 -586
-518 -162 -245 -243 -497 -254 -794 -11 -288 41 -515 172 -768 76 -146 154
-251 275 -372 172 -170 358 -288 577 -364 169 -58 275 -73 566 -81 l257 -8 0
152 0 151 -290 0 c-159 0 -290 4 -290 8 0 4 5 13 12 20 13 13 17 11 -82 37
-36 10 -104 34 -152 55 -687 296 -944 1151 -533 1777 81 123 253 291 374 365
175 107 375 168 599 184 93 6 103 8 107 28 2 11 9 48 15 81 60 324 267 558
580 657 65 20 95 23 225 23 l150 0 142 -50 c78 -27 144 -47 146 -44 2 2 17 56
35 119 55 207 128 353 252 511 369 468 1028 622 1579 368 380 -176 663 -549
735 -968 19 -114 20 -313 2 -431 -12 -74 -12 -86 1 -95 8 -5 56 -37 106 -69
112 -72 292 -248 364 -356 105 -156 177 -331 208 -506 l17 -91 82 -31 c127
-49 203 -98 301 -197 100 -100 156 -189 202 -320 25 -74 27 -91 28 -240 0
-149 -2 -166 -28 -247 -68 -206 -221 -385 -414 -482 -28 -14 -91 -38 -140 -52
-84 -26 -100 -27 -365 -32 l-278 -4 0 -104 0 -104 297 0 297 0 -54 -55 c-30
-30 -48 -55 -40 -55 8 0 53 6 100 14 408 66 741 337 885 721 159 421 45 909
-285 1219 -71 67 -199 157 -272 192 -21 10 -38 24 -38 32 0 30 -73 231 -115
319 -99 204 -289 438 -457 565 l-70 53 6 70 c13 148 -21 396 -80 580 -36 116
-142 325 -220 435 -37 52 -119 147 -183 210 -185 184 -390 311 -630 390 -145
48 -239 68 -389 80 -128 11 -135 11 -269 0z"/>
<path d="M5965 18263 c-267 -256 -615 -519 -895 -673 -332 -184 -883 -404
-1400 -559 l-25 -8 0 -274 c1 -287 10 -406 51 -679 145 -953 543 -1846 1129
-2535 129 -152 377 -394 520 -509 223 -179 611 -411 721 -432 28 -5 54 4 161
56 932 450 1732 1499 2089 2739 135 472 196 890 198 1355 l1 279 -40 13 c-803
251 -1364 505 -1769 801 -178 131 -483 389 -585 497 -19 20 -37 36 -40 36 -4
-1 -55 -49 -116 -107z m214 -416 c223 -215 507 -430 748 -565 130 -73 365
-181 587 -269 178 -71 592 -213 620 -213 27 0 34 -182 16 -440 -54 -769 -294
-1501 -698 -2125 -277 -429 -641 -800 -1018 -1037 -114 -71 -306 -168 -348
-175 -24 -4 -59 10 -166 64 -588 298 -1114 870 -1469 1598 -294 602 -461 1327
-449 1948 l3 159 235 78 c631 209 1025 402 1389 680 118 90 348 288 410 354
19 20 37 36 40 36 2 0 47 -42 100 -93z"/>
<path d="M29223 17419 c-166 -28 -330 -139 -429 -290 -91 -140 -128 -274 -144
-530 -6 -90 -12 -180 -15 -199 -3 -19 -28 -313 -55 -653 -42 -530 -48 -629
-39 -694 39 -283 202 -512 454 -638 160 -79 215 -87 594 -83 326 4 326 4 411
32 318 104 534 362 580 691 8 57 0 180 -40 685 -28 338 -52 631 -55 650 -3 19
-9 107 -15 196 -11 181 -22 250 -52 344 -74 234 -243 409 -458 475 -37 12
-106 19 -212 22 l-158 6 0 -187 c0 -178 1 -186 19 -186 11 0 27 -10 35 -22 14
-19 16 -71 16 -368 0 -257 -3 -351 -13 -370 -11 -23 -19 -25 -82 -28 -111 -5
-105 -27 -105 392 0 302 2 355 16 374 8 12 24 22 35 22 18 0 19 8 19 185 l0
185 -127 -1 c-71 -1 -151 -5 -180 -10z"/>
<path d="M38610 14610 c0 -6 -105 -10 -295 -10 l-295 0 0 -150 0 -150 515 0
514 0 -49 46 c-28 26 -50 51 -50 55 0 5 133 9 295 9 l295 0 0 105 0 105 -465
0 c-303 0 -465 -3 -465 -10z"/>
<path d="M4503 10859 c-68 -26 -137 -101 -158 -172 -13 -45 -15 -425 -15
-3242 0 -3539 -6 -3239 66 -3323 19 -23 60 -53 92 -69 l57 -28 1440 0 1440 0
52 24 c60 26 116 83 144 145 18 40 19 132 19 3242 0 3596 8 3265 -77 3355 -31
33 -63 55 -99 69 -54 20 -71 20 -1482 19 -1403 0 -1428 0 -1479 -20z m2605
-2356 c17 -23 15 -68 -4 -87 -24 -24 -80 -20 -98 6 -23 32 -20 55 10 84 19 20
31 24 52 19 15 -3 33 -13 40 -22z m-1818 -63 l0 -70 -220 0 -220 0 0 70 0 70
220 0 220 0 0 -70z m680 0 l0 -70 -220 0 -220 0 0 70 0 70 220 0 220 0 0 -70z
m305 -1486 c81 -42 107 -129 65 -221 -19 -43 -148 -268 -202 -356 -59 -93
-155 -122 -234 -71 -47 30 -66 58 -193 280 -77 134 -93 170 -97 215 -8 88 36
146 129 170 18 4 136 7 262 6 212 -2 233 -4 270 -23z m-225 -1711 l0 -853 -65
0 -65 0 0 853 0 852 65 0 65 0 0 -852z"/>
<path d="M11160 9307 c-49 -16 -133 -102 -148 -153 -9 -32 -12 -472 -12 -1910
0 -1859 1 -1869 21 -1914 25 -55 62 -95 114 -123 l40 -22 1038 -3 1037 -2 0
-230 0 -230 -340 0 -340 0 0 -110 0 -110 -785 0 -785 0 0 -180 0 -180 785 0
785 0 0 -105 0 -105 920 0 919 0 3 103 3 102 788 3 787 2 0 180 0 180 -787 2
-788 3 -3 107 -3 108 -337 2 -337 3 0 225 0 225 1040 5 1040 5 48 28 c54 32
102 92 117 147 7 25 9 676 8 1911 l-3 1874 -22 41 c-12 22 -38 55 -58 72 -76
67 125 62 -2409 61 -1647 -1 -2311 -4 -2336 -12z m4650 -1912 l0 -1595 -2320
0 -2320 0 0 1595 0 1595 2320 0 2320 0 0 -1595z"/>
<path d="M38840 8615 l0 -325 -28 0 c-29 0 -59 -25 -81 -67 -8 -15 -11 -199
-11 -628 0 -540 2 -611 16 -641 27 -57 46 -64 162 -64 103 0 104 0 132 30 18
20 31 47 35 73 3 23 5 311 3 639 l-3 597 -29 30 c-20 20 -40 31 -58 31 l-28 0
0 325 0 325 -55 0 -55 0 0 -325z"/>
<path d="M31540 6913 c-136 -124 -337 -278 -470 -359 -227 -138 -587 -287
-1019 -420 -12 -4 -13 -40 -8 -217 8 -285 35 -478 103 -751 191 -766 630
-1429 1194 -1805 101 -68 194 -120 272 -151 l56 -23 104 51 c212 105 409 253
609 460 342 352 613 831 757 1337 91 318 128 557 139 886 l6 206 -174 56
c-223 73 -484 178 -674 271 -230 113 -440 262 -663 470 -57 53 -107 96 -110
95 -4 0 -59 -48 -122 -106z m194 -244 c304 -289 607 -459 1136 -638 l165 -56
1 -135 c4 -436 -118 -922 -337 -1340 -243 -463 -611 -837 -983 -1001 l-60 -27
-56 24 c-192 85 -435 270 -603 459 -452 511 -717 1214 -717 1906 l0 115 173
58 c509 169 826 347 1122 629 44 42 81 76 82 77 1 0 36 -32 77 -71z"/>
</g>
</svg>
