<?xml version="1.0" standalone="no"?>
<!DOCTYPE svg PUBLIC "-//W3C//DTD SVG 20010904//EN"
 "http://www.w3.org/TR/2001/REC-SVG-20010904/DTD/svg10.dtd">
<svg version="1.0" xmlns="http://www.w3.org/2000/svg"
 width="7730.000000pt" height="7730.000000pt" viewBox="0 0 7730.000000 7730.000000"
 preserveAspectRatio="xMidYMid meet">

<g transform="translate(0.000000,7730.000000) scale(0.100000,-0.100000)"
fill="#2563EB" stroke="none">
<path d="M35028 52570 c-26 -14 -59 -52 -109 -125 -39 -58 -82 -114 -96 -125
-38 -30 -87 -35 -138 -15 -51 19 -78 51 -94 111 -21 79 -76 124 -151 124 -60
0 -87 -18 -174 -118 -327 -375 -886 -676 -1601 -863 -127 -33 -162 -39 -184
-30 -73 29 -571 114 -821 140 -274 29 -833 35 -1060 13 -494 -50 -912 -159
-1303 -341 -240 -111 -530 -305 -726 -484 -60 -55 -85 -69 -232 -131 -525
-222 -943 -492 -1271 -820 -229 -228 -375 -431 -513 -711 -122 -247 -186 -443
-239 -738 -14 -77 -32 -150 -41 -164 -23 -35 -98 -66 -140 -59 -19 4 -57 23
-85 42 -139 95 -265 131 -430 121 -119 -7 -217 -35 -345 -97 -201 -97 -366
-232 -464 -379 -98 -145 -174 -342 -208 -541 -24 -135 -23 -465 0 -620 114
-741 536 -1526 1190 -2217 123 -130 136 -154 124 -230 -8 -48 -31 -70 -138
-134 -228 -134 -342 -304 -326 -487 22 -261 272 -540 785 -877 144 -94 166
-112 203 -167 185 -275 491 -527 774 -638 332 -129 671 -140 1005 -30 178 58
316 133 463 251 l67 55 263 -131 c991 -495 1921 -765 2907 -846 80 -7 269 -12
421 -13 l277 -1 22 -43 c39 -73 96 -129 168 -164 l67 -33 528 -3 c582 -3 604
-1 697 58 124 80 198 259 172 416 -23 142 -101 249 -222 308 l-65 31 -515 3
c-539 3 -595 0 -674 -40 -59 -30 -130 -107 -162 -176 l-29 -60 -53 -7 c-107
-13 -541 14 -820 51 -607 81 -1240 267 -1907 560 -250 110 -805 395 -805 414
0 4 20 45 45 91 56 106 119 296 139 419 8 52 22 190 31 305 17 231 41 503 51
578 l6 48 78 -7 78 -6 -50 153 c-56 173 -54 146 -43 514 15 501 -34 1055 -132
1505 -20 91 -35 173 -35 184 1 10 20 57 44 105 55 111 169 230 269 279 136 66
394 122 1319 288 261 46 642 116 845 155 2111 400 3335 838 3953 1414 319 298
564 788 653 1305 30 177 38 550 15 745 -49 425 -186 818 -407 1173 -170 274
-438 548 -673 691 -70 42 -127 49 -178 21z"/>
<path d="M22335 38360 c-1353 -52 -2535 -239 -3573 -566 -653 -206 -1226 -462
-1649 -737 -122 -78 -124 -80 -266 -255 -900 -1110 -2030 -2685 -2915 -4064
-3042 -4738 -4618 -8958 -4559 -12203 4 -181 11 -395 17 -475 79 -1088 312
-1990 735 -2845 337 -681 737 -1235 1293 -1793 627 -628 1312 -1093 2040
-1383 119 -48 125 -49 227 -49 l105 0 0 153 c0 333 44 848 111 1307 238 1625
802 3010 1630 4001 124 148 405 436 543 558 216 190 446 359 690 509 97 60 99
61 129 46 48 -25 352 -330 730 -732 257 -273 373 -390 436 -436 494 -366 1054
-568 1811 -653 223 -25 895 -25 1170 0 758 70 1637 235 2800 527 318 80 432
111 1400 373 294 80 659 178 810 217 589 153 777 216 1595 537 669 263 937
358 1269 452 588 167 1117 243 1681 243 277 0 428 -8 660 -38 536 -68 1101
-242 1590 -489 l144 -72 47 111 c74 176 215 457 314 630 50 87 92 163 93 168
1 5 -56 24 -128 43 -376 98 -731 262 -996 460 -99 74 -284 238 -298 263 -7 13
57 151 263 572 599 1224 1204 2392 2391 4620 221 415 444 834 495 930 51 96
112 211 135 255 879 1645 1353 2635 1469 3065 121 451 141 982 55 1490 -114
677 -466 1446 -933 2039 l-79 100 -181 77 c-990 420 -2121 857 -3111 1201
-451 156 -1146 383 -1156 377 -5 -3 -19 -24 -30 -47 -50 -98 -170 -258 -279
-370 -249 -259 -463 -387 -877 -526 -298 -100 -583 -167 -883 -208 -108 -14
-200 -18 -455 -18 -281 1 -338 4 -465 23 -605 94 -1116 320 -1598 704 -169
135 -463 429 -530 531 -62 94 -113 199 -147 304 -77 236 -73 541 10 770 13 37
23 68 22 69 -4 3 -384 54 -622 84 -516 63 -1061 109 -1675 140 -276 14 -1232
20 -1505 10z"/>
<path d="M53675 36771 c-8919 -524 -12944 -763 -12998 -774 -43 -9 -117 -34
-165 -58 -73 -35 -102 -56 -177 -133 -95 -96 -137 -163 -174 -275 -14 -43 -46
-261 -96 -660 -238 -1881 -1093 -8290 -1755 -13156 -279 -2048 -340 -2516
-340 -2591 0 -219 118 -438 305 -563 145 -96 268 -125 505 -117 85 3 250 8
365 11 116 3 442 12 725 20 283 8 1071 31 1750 50 679 19 1291 37 1360 40 69
2 229 7 355 10 127 3 284 8 350 10 66 2 224 7 350 10 127 3 280 8 340 10 61 2
218 7 350 10 132 3 287 8 345 10 58 2 218 7 355 10 138 3 300 8 360 10 61 3
272 10 470 15 198 5 448 12 555 15 107 3 278 8 380 10 267 8 495 16 498 19 1
2 246 693 543 1537 297 844 653 1854 791 2244 295 838 723 2052 780 2215 66
188 120 279 229 389 127 127 285 210 457 241 32 5 840 61 1797 125 957 63
1838 122 1958 130 119 8 255 15 301 15 453 0 832 -354 862 -805 4 -53 -61
-1069 -190 -2979 -108 -1594 -195 -2901 -192 -2903 2 -2 151 1 332 6 181 6
419 13 529 16 110 3 268 8 350 11 83 3 1644 48 3470 100 2589 73 3333 97 3381
109 240 56 429 226 504 452 11 32 873 3899 1916 8593 1800 8104 1896 8540
1897 8635 2 297 -190 563 -478 661 -67 22 -101 27 -205 30 -80 2 -4744 -268
-13045 -755z m10629 -347 c3 -48 5 -88 4 -89 -2 -1 -5014 -304 -11138 -674
-6124 -369 -11185 -676 -11246 -681 -143 -13 -243 -39 -360 -94 -131 -62 -232
-135 -327 -236 -131 -140 -225 -317 -260 -490 -9 -41 -284 -2194 -612 -4785
-329 -2590 -598 -4711 -599 -4712 0 -1 -38 3 -84 9 -69 9 -82 13 -82 29 0 10
270 2146 600 4746 628 4956 607 4799 676 4966 85 205 251 406 441 535 130 88
332 169 484 192 42 7 5118 317 11280 690 6162 373 11207 678 11210 679 3 1 9
-38 13 -85z m-24892 -14440 c13 -4 16 -12 12 -32 -2 -15 -61 -470 -129 -1011
-68 -541 -126 -985 -128 -988 -6 -6 -144 9 -157 17 -9 5 21 268 117 1020 l128
1012 70 -6 c39 -4 78 -9 87 -12z"/>
<path d="M52485 25330 c-1050 -71 -1931 -131 -1958 -134 -196 -26 -412 -176
-514 -357 -29 -52 -137 -344 -358 -974 -174 -495 -454 -1289 -622 -1765 -168
-476 -403 -1144 -523 -1485 -120 -341 -316 -897 -435 -1235 -119 -338 -259
-734 -310 -880 -51 -146 -150 -425 -218 -620 -69 -195 -209 -593 -312 -885
-102 -291 -199 -566 -215 -610 -16 -44 -86 -242 -155 -440 -69 -198 -178 -508
-242 -688 -64 -180 -113 -330 -110 -333 3 -3 1330 51 2949 121 1618 69 3442
147 4051 174 844 36 1110 50 1116 60 4 7 11 60 14 119 5 89 110 1649 246 3657
367 5424 385 5696 372 5783 -28 197 -135 372 -297 488 -135 96 -265 135 -451
133 -65 -1 -977 -59 -2028 -129z"/>
<path d="M28620 18114 c-112 -13 -239 -41 -343 -75 -182 -59 -321 -138 -587
-330 -1482 -1072 -3129 -2064 -4626 -2787 -699 -337 -1404 -639 -2004 -857
-102 -37 -187 -69 -189 -71 -2 -2 4957 -4 11021 -4 l11026 0 -29 53 c-153 283
5 639 321 722 37 10 345 26 1034 55 540 22 1002 44 1028 48 l48 7 -29 82 c-92
266 -315 466 -594 533 -69 17 -116 20 -291 20 -115 0 -2531 -36 -5370 -80
-2838 -43 -5332 -82 -5541 -85 -209 -3 -510 -7 -670 -10 -159 -3 -481 -7 -715
-11 -234 -3 -938 -14 -1565 -24 -627 -9 -1142 -16 -1144 -14 -14 12 156 710
263 1084 121 421 310 1002 479 1472 l46 127 -52 5 c-29 4 -131 13 -227 22
-212 18 -550 56 -800 90 -175 23 -413 37 -490 28z"/>
<path d="M55810 15179 c-228 -11 -3142 -136 -6475 -279 -3416 -147 -6077 -265
-6100 -271 -92 -25 -183 -103 -232 -199 -24 -49 -28 -66 -28 -150 0 -85 3
-101 29 -154 36 -73 96 -135 168 -173 l53 -28 6635 0 6635 0 57 28 c75 37 134
98 172 177 l31 65 0 365 0 365 -27 57 c-35 76 -104 148 -175 184 -55 27 -65
29 -193 31 -74 1 -322 -7 -550 -18z"/>
<path d="M10844 13840 c-108 -22 -234 -124 -307 -250 -79 -136 -123 -336 -114
-513 7 -149 303 -2324 331 -2439 63 -251 216 -457 396 -531 l55 -22 27645 0
c23614 0 27652 2 27695 14 197 55 386 231 501 468 40 83 53 120 179 508 403
1245 528 1641 540 1714 19 106 19 312 1 416 -55 305 -215 539 -424 618 l-57
22 -5307 3 -5306 2 -79 -32 -78 -33 -6620 -3 c-5050 -2 -6633 0 -6675 9 -30 6
-79 22 -109 35 l-53 24 -16087 -1 c-8847 -1 -16105 -5 -16127 -9z"/>
</g>
</svg>
